<?xml version="1.0" standalone="no"?>
<!DOCTYPE svg PUBLIC "-//W3C//DTD SVG 20010904//EN"
 "http://www.w3.org/TR/2001/REC-SVG-20010904/DTD/svg10.dtd">
<svg version="1.0" xmlns="http://www.w3.org/2000/svg"
 width="700.000000pt" height="700.000000pt" viewBox="0 0 700.000000 700.000000"
 preserveAspectRatio="xMidYMid meet">
<metadata>
Created by potrace 1.11, written by Peter Selinger 2001-2013
</metadata>
<g transform="translate(0.000000,700.000000) scale(0.100000,-0.100000)"
fill="#000000" stroke="none">
<path d="M512 6981 c-198 -49 -362 -183 -448 -366 -69 -149 -64 88 -64 -3117
1 -1953 4 -2911 11 -2948 43 -226 204 -424 407 -500 138 -52 -28 -50 3087 -50
2616 0 2907 2 2970 16 148 34 282 117 377 236 49 61 112 178 122 229 2 13 9
48 15 78 8 37 11 937 11 2943 0 2601 -2 2897 -16 2966 -41 202 -175 373 -359
462 -156 75 100 70 -3135 69 -2754 0 -2909 -1 -2978 -18z m5973 -85 c203 -61
350 -208 411 -412 18 -56 18 -192 18 -2989 0 -2925 -1 -2930 -21 -2992 -66
-199 -209 -339 -408 -399 -57 -17 -203 -18 -2985 -18 -2782 0 -2928 1 -2985
18 -211 63 -377 239 -418 443 -10 49 -12 681 -12 2970 1 2761 2 2911 19 2968
47 159 160 296 301 368 55 27 141 54 190 59 17 2 1335 3 2930 3 2759 -1 2903
-2 2960 -19z"/>
<path d="M2562 5599 c-74 -37 -120 -122 -109 -202 4 -26 154 -339 417 -864
226 -452 410 -830 408 -839 -4 -21 -631 -1283 -638 -1283 -3 0 -162 315 -354
700 -373 747 -370 742 -455 768 -55 16 -86 14 -139 -10 -79 -34 -130 -124
-118 -207 7 -45 885 -1807 919 -1844 77 -83 216 -84 291 -3 12 13 179 338 371
724 193 385 353 701 356 701 3 0 164 -317 358 -704 374 -749 376 -753 458
-775 49 -14 67 -14 115 1 84 25 79 16 555 968 l448 895 0 67 c0 58 -4 72 -30
109 -71 100 -211 116 -298 34 -27 -26 -118 -198 -383 -727 -190 -381 -348
-694 -349 -696 -2 -2 -355 700 -785 1560 -430 860 -791 1574 -803 1587 -55 60
-159 77 -235 40z"/>
</g>
</svg>
