<?xml version="1.0" encoding="utf-8"?>
<!-- Generator: Adobe Illustrator 19.0.0, SVG Export Plug-In . SVG Version: 6.00 Build 0)  -->
<svg version="1.1" id="Layer_1" xmlns="http://www.w3.org/2000/svg" xmlns:xlink="http://www.w3.org/1999/xlink" x="0px" y="0px"
	 viewBox="0 0 2000 2000" style="enable-background:new 0 0 2000 2000;" xml:space="preserve">
<style type="text/css">
	.st0{fill:none;stroke:#231F20;stroke-width:6;stroke-miterlimit:10;}
	.st1{fill:#A6A8AB;}
	.st2{fill:#231F20;}
</style>
<g id="XMLID_2_">
	<path id="XMLID_58_" class="st0" d="M1731.8,109.8c-25.1-25.1-60.2-40.8-98.5-40.8H368.2c-38.3,0-73.4,15.7-98.5,40.8
		c-25.1,25.1-40.8,60.2-40.8,98.5v1265.1c0,38.3,15.7,73.4,40.8,98.5c25.1,25.1,60.2,40.8,98.5,40.8h1265.2
		c38.3,0,73.5-15.7,98.5-40.8c25.1-25.1,40.8-60.2,40.8-98.5V208.3C1772.7,170,1757,134.8,1731.8,109.8z"/>
	<g id="XMLID_53_">
		<path id="XMLID_57_" class="st1" d="M848.9,1205.8L1042.3,819c11.1-22.2,2.1-49.2-20.1-60.3c-22.2-11.1-49.2-2.1-60.3,20.1
			l-193.4,386.8c-11.1,22.2-2.1,49.2,20.1,60.3C810.8,1237,837.8,1228,848.9,1205.8"/>
		<path id="XMLID_56_" class="st2" d="M848.9,1165.6L655.5,778.8c-11.1-22.2-38.1-31.2-60.3-20.1C573,769.8,564,796.8,575.1,819
			l193.4,386.8c11.1,22.2,38.1,31.2,60.3,20.1C851,1214.8,860,1187.8,848.9,1165.6"/>
		<path id="XMLID_55_" class="st1" d="M1238.3,1205.8L1431.7,819c11.1-22.2,2.1-49.2-20.1-60.3s-49.2-2.1-60.3,20.1L1158,1165.6
			c-11.1,22.2-2.1,49.2,20.1,60.3C1200.2,1237,1227.2,1228,1238.3,1205.8"/>
		<path id="XMLID_54_" class="st2" d="M771.2,432.2l386.8,773.6c11.1,22.2,38.1,31.2,60.3,20.1c22.2-11.1,31.2-38.1,20.1-60.3
			L851.5,392c-11.1-22.2-38.1-31.2-60.3-20.1C769.1,383,760.1,410,771.2,432.2"/>
	</g>
	<g id="XMLID_3_">
		<path id="XMLID_49_" class="st2" d="M449.7,1927.4c-2.4,0-9.1,0.1-13.5,0.7c-1.7,0.4-1.9-2,0-2.4c6.7-1.5,8-1.1,8-28.1
			c0-10.1,0-18,0-29.3c0-25.6-0.3-24.7-8-26.4c-2-0.3-1.7-2.6,0-2.4c4.5,0.7,11,1.1,13.5,1.1c2.1,0,10.4-0.3,14.3-1.1
			c2-0.3,2.1,1.9,0,2.4c-8.3,2-8.8,0.9-8.8,26.3c0,11.4,0,19.2,0,29.5c0,25.6,1.9,27.2,9.1,27.9c1.7,0.2,1.6,2.6,0,2.4
			C459.4,1927.6,451.9,1927.4,449.7,1927.4z M455.6,1886.5c-0.2,1.1-0.3-4.3,0-3.1c12.6,0.2,41.5,0.3,51.4,0c0.3-0.7,0.3,4.2,0,3.1
			C497,1886.1,468.1,1886.1,455.6,1886.5z M512.8,1927.4c-2.1,0-9.5,0.1-14.6,0.7c-1.5,0.2-1.6-2.1,0-2.4c7.3-1,9.1-2.4,9.1-27.9
			c0-6.7,0-18.6,0-29.5c0-25.4-0.7-24.7-8.8-26.3c-2.4-0.4-1.7-2.7,0-2.4c3.8,0.8,11.8,1.1,14.3,1.1c2.5,0,9.1-0.2,13.5-1.1
			c1.7-0.3,2.4,1.8,0,2.4c-7.3,1.7-8,0.8-8,26.4c0,11.3,0,23,0,29.3c0,26.9,1.5,26.9,8,28.1c2.1,0.3,1.8,2.7,0,2.4
			C521.9,1927.4,515.2,1927.4,512.8,1927.4z"/>
		<path id="XMLID_44_" class="st2" d="M586.2,1927.8c-2.4,0-8.8-0.2-13.6,0.2c-2.6,0-1.5-2.1-0.1-2.4c8-1.1,8.1-2.4,8.1-28.1v-29.3
			c0-22.9-0.3-25.1-7.1-26.4c-2.5,0-2.2-2.9,0.3-2.4c4,0.4,8,0.4,12.3,0.4s14.5-0.4,19.4-0.4c0,0.8,0,2.1,0,2.8
			c-4.9,0-9.7,0.3-13.4,0.8c-0.2,3.6-0.3,11.3-0.3,17.3c0,1.2,0.1,17.2,0.1,22.2c0,0,0,2.5,0,2.7c0,4.4-0.1,20.5-0.1,27.6
			c0,10.3,1.6,12.2,14.1,12.3c0,0.7,0,1.9,0,2.7C600.8,1927.9,590.7,1927.8,586.2,1927.8z M622.2,1896.8c-1.2-8.8-2.1-9.8-11.2-10.4
			c-7.5-0.6-15.8-1-19-1v-2.7c4.3,0.1,11.8-0.3,19.1-0.9c8.5-0.7,9.9-0.8,11.1-9.1c0.3-2,2.5-1.7,2.4,0.1c-0.2,3.9-0.4,7.7-0.4,11.9
			c0,3.1,0.2,8,0.4,11.8C624.8,1899.2,622.3,1899.1,622.2,1896.8z M623.9,1859.7c-1.6-12.2-5.1-17.1-18.3-17.3c0-1.1,0-1.5,0-2.8
			c7.1,0,14.5,0,16.9-0.2c0-1.3,2.4-1,1.9,0.4c0.7,2.2,1.6,16.1,1.8,19.6C626.5,1862.2,624.1,1862.2,623.9,1859.7z M630.1,1927.2
			c1.1,1.5-1.6,2.5-2.4,1c-4-0.1-11.7-0.1-21.7-0.1c0-1,0-1.9,0-2.7c15.8,0,23-4.8,25.7-16.3c0-2.1,3.3-1.5,2.2,0.6
			C633.1,1914.1,630.6,1924.9,630.1,1927.2z"/>
		<path id="XMLID_40_" class="st2" d="M692.9,1912.3c-2.9,9.9,0.4,12.2,8.3,13.4c1.2,0.2,2.7,2.4-0.2,2.4c-4.5-0.6-12.6-0.7-15-0.7
			c-3.6,0-8.4-0.1-13.7,0.7c-2.7,0.4-2.8-2-0.6-2.4c7-1.2,11.2-3.5,14-9.8c2-4.5,25.3-63.5,30.6-79.2c0-3,5.7-1.8,3.6,1.2
			C719,1840.6,698.3,1893,692.9,1912.3z M700.2,1890.3c0.3-0.7,1-2.7,1.2-3.4c0.9,0.7,24.6,0.4,27.1,0.2c0.3,0.7,0.6,1.8,1.1,2.8
			C724.9,1889.7,704.8,1889.5,700.2,1890.3z M748.1,1927.4c-2.4,0-8.1,0.3-14.3,0.7c-1.6,0.3-2.6-1.3-0.6-2.4
			c4.8-0.3,8.5-2.5,6.3-9.2c-6.6-19-21.4-55.9-25.1-63.9c0.8-2.4,4.6-12,5.6-14.7h0.2c0.7,2.8,4.7,11.4,6.1,14.7
			c3,7.3,22.7,56.8,25,62.5c3.1,7.7,7.1,10.1,11.7,10.6c2.1,0.4,1.6,2.5-0.2,2.4C757.7,1927.7,750.4,1927.4,748.1,1927.4z"/>
		<path id="XMLID_37_" class="st2" d="M818.3,1927.6c-2.4-0.1-8.5,0-13.4,0.4c-1.6,0.1-1.9-2.1,0-2.4c5.9-0.8,8-1.1,8-28.1
			c0-11.3,0-18,0-29.3c0-25.4-0.2-24.5-8-25.4c-2-0.2-2-2.4,0-2.4c3.7,0.1,8-0.2,12.8-0.4c4.9-0.2,10.6-0.6,14.8-0.7
			c0.1,0.7,0.1,1.8,0.1,2.6c-1.7,0.1-4.9,0.3-6.2,0.6c-1.8,0.3-2.6,0.6-2.6,12.3c0,13,0,32,0,42.8c0,26.3,1.2,27.6,14.9,28.5
			c0,0.8,0,1.7,0,2.7C834.9,1928.8,824.4,1927.9,818.3,1927.6z M838.9,1928.9c0-0.8,0-1.9,0-2.7c15.8-0.2,38.2-7.2,38.2-42
			c0-28.3-14.3-42.8-44.3-42.2c-0.1-0.9,0-1.6-0.1-2.6c1.8-0.1,3.6-0.2,4.9-0.2c36.5-1,52.9,21.2,52.9,44
			C890.4,1905.8,874.4,1928.9,838.9,1928.9z"/>
		<path id="XMLID_33_" class="st2" d="M1087.4,1912.3c-2.9,9.9,0.4,12.2,8.3,13.4c1.2,0.2,2.7,2.4-0.2,2.4c-4.5-0.6-12.6-0.7-15-0.7
			c-3.6,0-8.4-0.1-13.7,0.7c-2.7,0.4-2.8-2-0.6-2.4c7-1.2,11.2-3.5,14-9.8c2-4.5,25.3-63.5,30.6-79.2c0-3,5.7-1.8,3.6,1.2
			C1113.4,1840.6,1092.8,1893,1087.4,1912.3z M1094.7,1890.3c0.3-0.7,1-2.7,1.2-3.4c0.9,0.7,24.6,0.4,27.1,0.2
			c0.3,0.7,0.6,1.8,1.1,2.8C1119.4,1889.7,1099.3,1889.5,1094.7,1890.3z M1142.5,1927.4c-2.4,0-8.1,0.3-14.3,0.7
			c-1.6,0.3-2.6-1.3-0.6-2.4c4.8-0.3,8.5-2.5,6.3-9.2c-6.6-19-21.4-55.9-25.1-63.9c0.8-2.4,4.6-12,5.6-14.7h0.2
			c0.7,2.8,4.7,11.4,6.1,14.7c3,7.3,22.7,56.8,25,62.5c3.1,7.7,7.1,10.1,11.7,10.6c2.1,0.4,1.6,2.5-0.2,2.4
			C1152.1,1927.7,1144.8,1927.4,1142.5,1927.4z"/>
		<path id="XMLID_25_" class="st2" d="M1217,1843.8c-2,0.2-7.3,0.3-10.9,0.4c-9.8,0.3-14.7,2.7-18.2,15.7c-0.6,1.9-2.8,1.6-2.4-0.6
			c1.3-5.9,1.6-16.1,1.6-18.9c-0.6-1.5,1.2-2.1,2.1-1.2c3.1,1.1,9.2,1.9,16.6,1.9c5.5,0,11.4,0.1,12.2,0.1
			C1217.9,1841.8,1217.4,1842.9,1217,1843.8z M1222.2,1927.3c-2,0-10.7,0-16.2,0.8c-1.7,0.3-1.8-2-0.4-2.4
			c9.8-1.5,11.4-2.4,11.4-28.1c0-11.1,0.1-50.4-0.1-53.9c0.4-0.9,0.9-1.9,1.1-2.5c0.9,0,9,0,9.5-0.1c0.2,0.8,0.2,1.6,0.6,2.6
			c-0.6,6.8-0.3,43.6-0.3,54c0,25.7,1,26.3,11.8,27.9c1.5,0.2,1.2,2.7-0.3,2.4C1234.5,1927.5,1224.5,1927.3,1222.2,1927.3z
			 M1258.1,1861.3c-0.1,2.4-2.1,2-2.4-0.1c-1.5-13.8-6.7-16.4-17.2-17.1c-3.1-0.2-7-0.3-10.4-0.3c-0.3-1.1-0.3-1.8-0.6-2.6
			c2.4,0.1,8.1,0,11.2-0.2c6.4-0.3,14.7-0.9,18.9-1.5c1.2-1,2.7,0.1,1.8,1.6C1259.3,1842,1258.4,1849.7,1258.1,1861.3z"/>
		<path id="XMLID_19_" class="st2" d="M1310.6,1927.8c-2.4,0-8.8-0.2-13.6,0.2c-2.6,0-1.5-2.1-0.1-2.4c8-1.1,8.1-2.4,8.1-28.1v-29.3
			c0-22.9-0.3-25.1-7.1-26.4c-2.5,0-2.2-2.9,0.3-2.4c4,0.4,8,0.4,12.3,0.4c4.4,0,14.5-0.4,19.4-0.4c0,0.8,0,2.1,0,2.8
			c-4.9,0-9.7,0.3-13.4,0.8c-0.2,3.6-0.3,11.3-0.3,17.3c0,1.2,0.1,17.2,0.1,22.2c0,0,0,2.5,0,2.7c0,4.4-0.1,20.5-0.1,27.6
			c0,10.3,1.6,12.2,14.1,12.3c0,0.7,0,1.9,0,2.7C1325.2,1927.9,1315.1,1927.8,1310.6,1927.8z M1346.6,1896.8
			c-1.2-8.8-2.1-9.8-11.2-10.4c-7.5-0.6-15.8-1-19-1v-2.7c4.3,0.1,11.8-0.3,19.1-0.9c8.5-0.7,9.9-0.8,11.1-9.1
			c0.3-2,2.5-1.7,2.4,0.1c-0.2,3.9-0.4,7.7-0.4,11.9c0,3.1,0.2,8,0.4,11.8C1349.2,1899.2,1346.8,1899.1,1346.6,1896.8z
			 M1348.3,1859.7c-1.6-12.2-5.1-17.1-18.3-17.3c0-1.1,0-1.5,0-2.8c7.1,0,14.5,0,17-0.2c0-1.3,2.4-1,1.9,0.4
			c0.7,2.2,1.6,16.1,1.8,19.6C1350.9,1862.2,1348.6,1862.2,1348.3,1859.7z M1354.5,1927.2c1.1,1.5-1.6,2.5-2.4,1
			c-4-0.1-11.7-0.1-21.7-0.1c0-1,0-1.9,0-2.7c15.8,0,23-4.8,25.7-16.3c0-2.1,3.3-1.5,2.2,0.6
			C1357.5,1914.1,1355.1,1924.9,1354.5,1927.2z"/>
		<path id="XMLID_16_" class="st2" d="M1413.2,1927.4c-2.8,0-11.3,0.6-13.6,0.7c-1.8,0.1-1.9-2.2-0.1-2.4c7.5-0.6,8.2-1.7,8.2-28.1
			v-29.3c0-25.1-1.6-25.5-7-26.5c-1.8-0.3-1.1-2.6,0.2-2.4c3.4,0.4,7.2,0.4,9.8,0.4c2.9,0,12-0.8,16.4-0.9c0,1,0,1.7,0,2.6
			c-3.1,0-7.1,0.3-8.8,0.7c0.6,3.8,0.3,12.3,0.3,18.2v37.2c0,25.9,1.6,27.3,9.2,28.1c1.8,0.1,1.6,2.5-0.2,2.4
			C1422.3,1927.6,1416.7,1927.4,1413.2,1927.4z M1468.2,1928.7c-15.6,0-23.2-10.6-42.1-44c-1,0.1-2,0.1-3.1,0.1
			c-1.5,0-3.1-0.2-4.3-0.4c0-0.7,0-1.8,0-2.9c0.8,0.2,2.2,0.4,4.4,0.4c11.4,0,21-4.4,21-19.2c0-13.4-4.4-21.1-17-21.1
			c0-0.9,0-1.6,0-2.6c20.1,0,28.8,9.9,28.8,23c0,10-6.3,17.5-17.6,20.8c10.4,19.8,26.5,42.2,33.9,42.2c1.7,0,2.6-0.3,4-1.5
			c1.7-1.2,3.1,0.3,1.6,1.8C1475.8,1927,1472.6,1928.7,1468.2,1928.7z"/>
		<path id="XMLID_12_" class="st2" d="M1535.4,1928.6c-7,0-12.2-0.3-18-2.7c-0.9,1.9-3.7-0.1-2.4-1.7l-2.1-19.3
			c-0.1-1.5,1.7-2.2,2.4-0.4c2.9,12.9,7.6,20.9,20.1,20.9c4.4,0,9.2-1.2,11.3-2.2c0.3,0.8,1,1.9,1.5,2.9
			C1545.6,1927,1541.2,1928.6,1535.4,1928.6z M1548.2,1926c-0.4-1-1.1-2.1-1.5-2.9c5.3-2.4,8.5-6.4,8.5-13.6
			c0-10.9-6.2-15.8-13.5-20.1c-3-1.8-6.2-3.5-9.2-5.4c-9.2-5.8-13.1-13.2-13.1-20.9c0-14.4,13.5-21.4,15.7-22.5
			c0.4,1.1,0.9,2,1.2,2.8c-5.4,2.4-7.9,6.6-7.9,13c0,5.9,2.2,11.4,9.4,16.4c2.4,1.7,8.9,5.4,11.7,7c10.6,5.9,15.8,13.9,15.8,22.4
			C1565.5,1909.8,1562,1920.2,1548.2,1926z M1561,1858c-2.6-8.3-5.5-15.9-16.2-15.9c-3,0-6.3,0.6-8.4,1.5c-0.3-0.8-0.8-1.7-1.2-2.8
			c3.3-1.6,8.1-2.4,12-2.4c4.5,0,8.6,0.7,12.3,1.8c0.6-1.7,2.9-0.9,2.4,1.6c0,0.7,0.7,10.8,1.5,15.7
			C1564,1859.5,1561.3,1860.3,1561,1858z"/>
		<path id="XMLID_4_" class="st2" d="M1051.6,1839.6c-2.8,0.6-10.2,0.7-13.8,0.7c-2.5,0-10.6,0-15-0.7c-1.5-0.3-2.5,2-0.3,2.4
			c9.3,1.7,10.2,5.1,9.2,9.3c-3.4,15.3-17.5,46.9-23.3,61.7c-6.6-15.9-11.7-28.3-18.4-44.2c3.9-9,6.8-15.6,7.4-17.1
			c2.7-6.4,4-8.1,14.3-9.9c2.2-0.2,1.7-2.7-0.3-2.4c-8,0-22.6,1.1-26.6,1.1c-3.4,0-18.1-0.1-24.5-1c-2.7-0.3-2.7,1.9-0.3,2.4
			c4.5,0.7,8.2,4.2,11.1,10.6c1,2.2,5.9,13.7,11.2,26.4c-3.4,8.8-8.4,20.8-14,34.2c-3.6-9-23.6-59.8-24.1-62
			c-1.9-6.4,0.4-8.5,5.9-9.2c2.1-0.3,2.1-2.6-0.2-2.4c-4.4,0.3-12,0.6-14.7,0.6c-2.7,0-9.8-0.2-14.4-0.6c-2-0.1-2.4,2.1-0.2,2.4
			c5.2,0.6,8.3,3.3,11.6,10.4c2.2,4.9,22.1,55.3,24.9,62.6c2.9,7.7,4.4,10.5,5.5,14.3c-0.3,2.1,2.4,2.4,2.4,0.2
			c1.2-4.2,3.3-9,4.8-12.8c7.9-19.5,10.1-24.6,14.1-34.3c6.2,14.6,12.1,28.8,13.6,32.7c2.9,7.7,4.4,10.5,5.5,14.3
			c-0.1,2.4,2.8,2.2,2.4-0.1c1.2-4.5,2.7-8.1,4.5-13c9.1-22.3,25.8-58.1,27.3-61.8c3.1-8.1,6.6-10.8,15-12.3
			C1054.3,1841.7,1053.5,1839.1,1051.6,1839.6z M978.5,1850c0-3.5,2.9-6.4,6.4-6.4c3.5,0,6.4,2.9,6.4,6.4c0,3.8-6.4,9.4-6.4,12.9
			C984.9,1859.3,978.5,1853.8,978.5,1850z"/>
	</g>
</g>
</svg>
