<?xml version="1.0" encoding="utf-8"?>
<!-- Generator: Adobe Illustrator 19.0.0, SVG Export Plug-In . SVG Version: 6.00 Build 0)  -->
<svg version="1.1" id="Layer_1" xmlns="http://www.w3.org/2000/svg" xmlns:xlink="http://www.w3.org/1999/xlink" x="0px" y="0px"
	 viewBox="0 0 2000 1336.1" style="enable-background:new 0 0 2000 1336.1;" xml:space="preserve">
<style type="text/css">
	.st0{fill:#00ADEE;}
	.st1{fill:#1E3463;}
	.st2{fill:#FFFFFF;}
</style>
<g id="XMLID_2_">
	<path id="XMLID_58_" class="st0" d="M1365.4,63.6c-13.4-13.5-32.3-21.9-52.8-21.9h-678c-20.5,0-39.4,8.4-52.8,21.9
		c-13.5,13.4-21.9,32.3-21.9,52.8v678c0,20.5,8.4,39.4,21.9,52.8c13.4,13.5,32.3,21.9,52.8,21.9h678c20.5,0,39.4-8.4,52.8-21.9
		c13.5-13.4,21.9-32.3,21.9-52.8v-678C1387.2,95.9,1378.8,77,1365.4,63.6z"/>
	<g id="XMLID_53_">
		<path id="XMLID_57_" class="st1" d="M892.2,651l103.6-207.3c5.9-11.9,1.1-26.4-10.8-32.3c-11.9-5.9-26.4-1.1-32.3,10.8
			L849.1,629.4c-5.9,11.9-1.1,26.4,10.8,32.3C871.8,667.7,886.2,662.9,892.2,651"/>
		<path id="XMLID_56_" class="st2" d="M892.2,629.4L788.5,422.1c-5.9-11.9-20.4-16.7-32.3-10.8c-11.9,5.9-16.7,20.4-10.8,32.3
			L849.1,651c5.9,11.9,20.4,16.7,32.3,10.8C893.3,655.8,898.1,641.3,892.2,629.4"/>
		<path id="XMLID_55_" class="st1" d="M1100.9,651l103.6-207.3c5.9-11.9,1.1-26.4-10.8-32.3c-11.9-5.9-26.4-1.1-32.3,10.8
			l-103.6,207.3c-5.9,11.9-1.1,26.4,10.8,32.3C1080.5,667.7,1094.9,662.9,1100.9,651"/>
		<path id="XMLID_54_" class="st2" d="M850.5,236.4L1057.8,651c5.9,11.9,20.4,16.7,32.3,10.8c11.9-5.9,16.7-20.4,10.8-32.3
			L893.6,214.8c-5.9-11.9-20.4-16.7-32.3-10.8C849.4,210,844.6,224.5,850.5,236.4"/>
	</g>
	<g id="XMLID_3_">
		<path id="XMLID_49_" class="st1" d="M54,1291.5c-4,0-15.5,0.2-23,1.1c-2.9,0.8-3.3-3.4,0-4c11.5-2.5,13.6-1.9,13.6-47.9
			c0-17.3,0-30.7,0-50c0-43.7-0.6-42.2-13.6-45c-3.4-0.6-2.9-4.4,0-4c7.7,1.2,18.8,1.9,23,1.9c3.6,0,17.8-0.6,24.3-1.9
			c3.4-0.6,3.6,3.3,0,4c-14.2,3.5-14.9,1.5-14.9,44.9c0,19.6,0,32.8,0,50.4c0,43.7,3.3,46.4,15.5,47.7c2.9,0.4,2.7,4.4,0,4
			C70.5,1291.9,57.6,1291.5,54,1291.5z M63.9,1221.8c-0.4,1.9-0.6-7.3,0-5.4c21.5,0.4,70.9,0.6,87.8,0c0.6-1.2,0.6,7.1,0,5.4
			C134.7,1221,85.4,1221,63.9,1221.8z M161.7,1291.5c-3.6,0-16.3,0.2-24.9,1.1c-2.5,0.4-2.7-3.6,0-4c12.5-1.7,15.5-4,15.5-47.7
			c0-11.5,0-31.8,0-50.4c0-43.3-1.1-42.2-15-44.9c-4-0.8-2.9-4.6,0-4c6.5,1.3,20.1,1.9,24.3,1.9c4.2,0,15.5-0.4,23-1.9
			c2.9-0.6,4,3.1,0,4c-12.5,2.9-13.6,1.3-13.6,45c0,19.4,0,39.3,0,50c0,46,2.5,46,13.6,47.9c3.6,0.6,3.1,4.6,0,4
			C177.2,1291.5,165.7,1291.5,161.7,1291.5z"/>
		<path id="XMLID_44_" class="st1" d="M287,1292.3c-4,0-15-0.4-23.2,0.4c-4.4,0-2.5-3.6-0.2-4c13.6-1.9,13.8-4,13.8-47.9v-50
			c0-39.1-0.6-42.9-12.1-45c-4.2,0-3.8-5,0.6-4c6.9,0.8,13.6,0.8,21.1,0.8s24.7-0.8,33.2-0.8c0,1.3,0,3.6,0,4.8
			c-8.4,0-16.5,0.6-22.8,1.3c-0.4,6.1-0.6,19.4-0.6,29.5c0,2.1,0.2,29.3,0.2,38c0,0,0,4.2,0,4.6c0,7.5-0.2,35.1-0.2,47.2
			c0,17.6,2.7,20.9,24.2,21.1c0,1.2,0,3.3,0,4.6C311.9,1292.5,294.7,1292.3,287,1292.3z M348.5,1239.4c-2.1-15-3.6-16.7-19.2-17.8
			c-12.8-1-27-1.7-32.4-1.7v-4.6c7.3,0.2,20.1-0.6,32.6-1.5c14.6-1.2,16.9-1.3,19-15.5c0.6-3.5,4.2-2.9,4,0.2
			c-0.4,6.7-0.8,13.2-0.8,20.3c0,5.4,0.4,13.6,0.8,20.1C352.9,1243.4,348.7,1243.2,348.5,1239.4z M351.4,1176
			c-2.7-20.9-8.6-29.1-31.2-29.5c0-1.9,0-2.5,0-4.8c12.1,0,24.7,0,28.9-0.4c0-2.3,4-1.7,3.3,0.8c1.1,3.8,2.7,27.4,3.1,33.5
			C355.8,1180.2,351.8,1180.2,351.4,1176z M361.9,1291.2c1.9,2.5-2.7,4.2-4,1.7c-6.9-0.2-19.9-0.2-37-0.2c0-1.7,0-3.3,0-4.6
			c27,0,39.3-8.2,43.9-27.8c0-3.6,5.6-2.5,3.8,1C367.1,1268.9,362.9,1287.3,361.9,1291.2z"/>
		<path id="XMLID_40_" class="st1" d="M469.3,1265.8c-5,16.9,0.8,20.9,14.2,22.8c2.1,0.4,4.6,4-0.4,4c-7.7-1-21.5-1.1-25.7-1.1
			c-6.1,0-14.4-0.2-23.4,1.1c-4.6,0.8-4.8-3.4-1-4c11.9-2.1,19.2-5.9,24-16.7c3.4-7.7,43.1-108.5,52.3-135.3c0-5.2,9.8-3.1,6.1,2.1
			C513.8,1143.4,478.5,1232.9,469.3,1265.8z M481.8,1228.3c0.6-1.2,1.7-4.6,2.1-5.8c1.5,1.2,42,0.8,46.2,0.4c0.6,1.1,1,3.1,1.9,4.8
			C523.9,1227.1,489.6,1226.9,481.8,1228.3z M563.4,1291.5c-4,0-13.8,0.6-24.3,1.1c-2.7,0.6-4.4-2.3-1-4c8.2-0.6,14.6-4.2,10.7-15.7
			c-11.3-32.4-36.6-95.5-42.9-109.1c1.3-4,7.9-20.5,9.6-25.1h0.4c1.1,4.8,8.1,19.6,10.4,25.1c5.2,12.5,38.7,97,42.7,106.8
			c5.4,13.2,12.1,17.3,19.9,18c3.6,0.8,2.7,4.2-0.4,4C579.9,1292.1,567.5,1291.5,563.4,1291.5z"/>
		<path id="XMLID_37_" class="st1" d="M683.4,1291.9c-4-0.2-14.6,0-22.8,0.8c-2.7,0.2-3.3-3.6,0-4c10.2-1.3,13.6-1.9,13.6-47.9
			c0-19.4,0-30.7,0-50c0-43.3-0.4-41.8-13.6-43.3c-3.4-0.4-3.4-4,0-4c6.3,0.2,13.6-0.4,21.9-0.8c8.4-0.4,18-1,25.3-1.2
			c0.2,1.2,0.2,3.1,0.2,4.4c-2.9,0.2-8.4,0.6-10.5,1c-3.1,0.6-4.4,1-4.4,21.1c0,22.2,0,54.6,0,73c0,44.9,2.1,47.2,25.5,48.7
			c0,1.3,0,2.9,0,4.6C711.8,1294,693.8,1292.5,683.4,1291.9z M718.5,1294.2c0-1.3,0-3.3,0-4.6c27-0.4,65.2-12.3,65.2-71.7
			c0-48.3-24.3-73-75.7-72.1c-0.2-1.5,0-2.7-0.2-4.4c3.1-0.2,6.1-0.4,8.4-0.4c62.3-1.7,90.3,36.2,90.3,75.1
			C806.5,1254.7,779.2,1294.2,718.5,1294.2z"/>
		<path id="XMLID_33_" class="st1" d="M1142.9,1265.8c-5,16.9,0.8,20.9,14.2,22.8c2.1,0.4,4.6,4-0.4,4c-7.7-1-21.5-1.1-25.7-1.1
			c-6.1,0-14.4-0.2-23.4,1.1c-4.6,0.8-4.8-3.4-1-4c11.9-2.1,19.2-5.9,24-16.7c3.5-7.7,43.1-108.5,52.3-135.3c0-5.2,9.8-3.1,6.1,2.1
			C1187.4,1143.4,1152.1,1232.9,1142.9,1265.8z M1155.3,1228.3c0.6-1.2,1.7-4.6,2.1-5.8c1.5,1.2,42,0.8,46.2,0.4
			c0.6,1.1,1,3.1,1.9,4.8C1197.5,1227.1,1163.2,1226.9,1155.3,1228.3z M1237,1291.5c-4,0-13.8,0.6-24.3,1.1c-2.7,0.6-4.4-2.3-1-4
			c8.2-0.6,14.6-4.2,10.7-15.7c-11.3-32.4-36.6-95.5-42.9-109.1c1.3-4,7.9-20.5,9.6-25.1h0.4c1.2,4.8,8.1,19.6,10.4,25.1
			c5.2,12.5,38.7,97,42.7,106.8c5.4,13.2,12.1,17.3,19.9,18c3.6,0.8,2.7,4.2-0.4,4C1253.5,1292.1,1241,1291.5,1237,1291.5z"/>
		<path id="XMLID_25_" class="st1" d="M1364.2,1148.7c-3.5,0.4-12.5,0.6-18.6,0.8c-16.7,0.6-25.1,4.6-31.1,26.8c-1,3.3-4.8,2.7-4-1
			c2.3-10.2,2.7-27.4,2.7-32.2c-1-2.5,2.1-3.6,3.6-2.1c5.4,1.9,15.7,3.3,28.4,3.3c9.4,0,19.6,0.2,20.9,0.2
			C1365.7,1145.5,1364.9,1147.2,1364.2,1148.7z M1373.2,1291.3c-3.4,0-18.2,0-27.6,1.3c-2.9,0.6-3.1-3.4-0.8-4
			c16.7-2.5,19.6-4,19.6-47.9c0-19,0.2-86.1-0.2-92c0.8-1.5,1.5-3.3,1.9-4.2c1.5,0,15.3,0,16.3-0.2c0.4,1.3,0.4,2.7,1,4.4
			c-1,11.7-0.6,74.4-0.6,92.2c0,43.9,1.7,44.9,20.1,47.7c2.5,0.4,2.1,4.6-0.6,4C1394.1,1291.7,1377,1291.3,1373.2,1291.3z
			 M1434.5,1178.6c-0.2,4-3.6,3.5-4-0.2c-2.5-23.6-11.5-28-29.3-29.1c-5.4-0.4-11.9-0.6-17.8-0.6c-0.6-1.9-0.6-3.1-1-4.4
			c4,0.2,13.8,0,19.2-0.4c10.9-0.6,25.1-1.5,32.2-2.5c2.1-1.7,4.6,0.2,3.1,2.7C1436.4,1145.7,1434.9,1158.9,1434.5,1178.6z"/>
		<path id="XMLID_19_" class="st1" d="M1524.1,1292.3c-4,0-15-0.4-23.2,0.4c-4.4,0-2.5-3.6-0.2-4c13.6-1.9,13.8-4,13.8-47.9v-50
			c0-39.1-0.6-42.9-12.1-45c-4.2,0-3.8-5,0.6-4c6.9,0.8,13.6,0.8,21.1,0.8c7.5,0,24.7-0.8,33.2-0.8c0,1.3,0,3.6,0,4.8
			c-8.4,0-16.5,0.6-22.8,1.3c-0.4,6.1-0.6,19.4-0.6,29.5c0,2.1,0.2,29.3,0.2,38c0,0,0,4.2,0,4.6c0,7.5-0.2,35.1-0.2,47.2
			c0,17.6,2.7,20.9,24.2,21.1c0,1.2,0,3.3,0,4.6C1549,1292.5,1531.8,1292.3,1524.1,1292.3z M1585.6,1239.4
			c-2.1-15-3.6-16.7-19.2-17.8c-12.8-1-27-1.7-32.4-1.7v-4.6c7.3,0.2,20.1-0.6,32.6-1.5c14.6-1.2,16.9-1.3,19-15.5
			c0.6-3.5,4.2-2.9,4,0.2c-0.4,6.7-0.8,13.2-0.8,20.3c0,5.4,0.4,13.6,0.8,20.1C1590,1243.4,1585.8,1243.2,1585.6,1239.4z
			 M1588.5,1176c-2.7-20.9-8.6-29.1-31.2-29.5c0-1.9,0-2.5,0-4.8c12.1,0,24.7,0,28.9-0.4c0-2.3,4-1.7,3.3,0.8
			c1.2,3.8,2.7,27.4,3.1,33.5C1592.9,1180.2,1588.9,1180.2,1588.5,1176z M1599,1291.2c1.9,2.5-2.7,4.2-4,1.7
			c-6.9-0.2-19.9-0.2-37-0.2c0-1.7,0-3.3,0-4.6c27,0,39.3-8.2,43.9-27.8c0-3.6,5.6-2.5,3.8,1C1604.2,1268.9,1600,1287.3,1599,1291.2
			z"/>
		<path id="XMLID_16_" class="st1" d="M1699.3,1291.5c-4.8,0-19.4,1-23.2,1.1c-3.1,0.2-3.3-3.8-0.2-4c12.8-1,14-2.9,14-47.9v-50
			c0-42.9-2.7-43.5-11.9-45.2c-3.1-0.6-1.9-4.4,0.4-4c5.7,0.8,12.3,0.8,16.7,0.8c5,0,20.5-1.3,28-1.5c0,1.7,0,2.9,0,4.4
			c-5.4,0-12.1,0.6-15,1.1c1,6.5,0.6,21.1,0.6,31.1v63.5c0,44.3,2.7,46.6,15.7,47.9c3.1,0.2,2.7,4.2-0.4,4
			C1714.8,1291.9,1705.3,1291.5,1699.3,1291.5z M1793.2,1293.8c-26.6,0-39.7-18-71.9-75.1c-1.7,0.2-3.4,0.2-5.4,0.2
			c-2.5,0-5.4-0.4-7.3-0.8c0-1.2,0-3.1,0-5c1.3,0.4,3.8,0.8,7.5,0.8c19.6,0,35.8-7.5,35.8-32.8c0-22.8-7.5-36-28.9-36
			c0-1.5,0-2.7,0-4.4c34.3,0,49.3,16.9,49.3,39.3c0,17.1-10.7,29.9-30.1,35.5c17.8,33.7,45.2,72.1,57.9,72.1c2.9,0,4.4-0.6,6.9-2.5
			c2.9-2.1,5.4,0.6,2.7,3.1C1806.3,1291,1800.7,1293.8,1793.2,1293.8z"/>
		<path id="XMLID_12_" class="st1" d="M1908,1293.6c-11.9,0-20.9-0.6-30.7-4.6c-1.5,3.3-6.3-0.2-4-2.9l-3.6-33
			c-0.2-2.5,2.9-3.8,4-0.8c5,22,13,35.7,34.3,35.7c7.5,0,15.7-2.1,19.4-3.8c0.6,1.3,1.7,3.3,2.5,5
			C1925.4,1291,1917.9,1293.6,1908,1293.6z M1929.8,1289.2c-0.8-1.7-1.9-3.6-2.5-5c9-4,14.6-10.9,14.6-23.2c0-18.6-10.5-27-23-34.3
			c-5.2-3.1-10.5-5.9-15.7-9.2c-15.7-10-22.4-22.6-22.4-35.7c0-24.5,23-36.6,26.8-38.3c0.8,1.9,1.5,3.5,2.1,4.8
			c-9.2,4-13.4,11.3-13.4,22.2c0,10.2,3.8,19.6,16.1,28c4,2.9,15.1,9.2,19.9,11.9c18,10.2,27,23.8,27,38.3
			C1959.3,1261.4,1953.4,1279.3,1929.8,1289.2z M1951.7,1173.1c-4.4-14.2-9.4-27.2-27.6-27.2c-5.2,0-10.7,1-14.4,2.5
			c-0.6-1.3-1.3-2.9-2.1-4.8c5.6-2.7,13.8-4,20.5-4c7.7,0,14.8,1.1,21.1,3.1c1-2.9,5-1.5,4,2.7c0,1.1,1.1,18.4,2.5,26.8
			C1956.9,1175.6,1952.3,1176.9,1951.7,1173.1z"/>
		<path id="XMLID_4_" class="st1" d="M1081.8,1141.6c-4.8,1-17.4,1.2-23.6,1.2c-4.2,0-18,0-25.7-1.2c-2.5-0.6-4.2,3.5-0.6,4
			c15.9,2.9,17.4,8.6,15.7,15.9c-5.7,26.1-29.9,80.1-39.9,105.4c-11.3-27.2-19.9-48.3-31.4-75.5c6.7-15.3,11.7-26.6,12.7-29.1
			c4.6-10.9,6.9-13.8,24.3-16.9c3.8-0.4,2.9-4.6-0.6-4c-13.6,0-38.5,1.9-45.4,1.9c-5.7,0-30.9-0.2-41.8-1.7c-4.6-0.6-4.6,3.3-0.6,4
			c7.7,1.2,14,7.1,19,18c1.7,3.8,10.2,23.4,19.2,45c-5.8,15-14.4,35.5-24,58.5c-6.1-15.3-40.3-102.2-41.2-105.8
			c-3.3-10.9,0.8-14.6,10.2-15.7c3.6-0.6,3.6-4.4-0.4-4c-7.5,0.6-20.5,1-25.1,1c-4.6,0-16.7-0.4-24.5-1c-3.4-0.2-4,3.6-0.4,4
			c8.8,1,14.2,5.6,19.7,17.8c3.8,8.4,37.8,94.5,42.6,107c5,13.2,7.5,18,9.4,24.3c-0.6,3.6,4,4,4,0.4c2.1-7.1,5.6-15.3,8.2-21.9
			c13.4-33.4,17.3-42,24.2-58.7c10.5,24.9,20.7,49.3,23.2,55.8c5,13.2,7.5,18,9.4,24.3c-0.2,4,4.8,3.8,4-0.2
			c2.1-7.7,4.6-13.8,7.7-22.2c15.5-38.1,44.1-99.3,46.6-105.6c5.4-13.8,11.3-18.4,25.7-21.1
			C1086.4,1145.3,1085,1140.9,1081.8,1141.6z M957,1159.4c0-6,4.9-10.9,10.9-10.9c6,0,10.9,4.9,10.9,10.9c0,6.5-10.9,16-10.9,22
			C967.9,1175.3,957,1165.9,957,1159.4z"/>
	</g>
</g>
</svg>
