<?xml version="1.0" encoding="utf-8"?>
<!-- Generator: Adobe Illustrator 19.0.0, SVG Export Plug-In . SVG Version: 6.00 Build 0)  -->
<svg version="1.1" id="Layer_1" xmlns="http://www.w3.org/2000/svg" xmlns:xlink="http://www.w3.org/1999/xlink" x="0px" y="0px"
	 viewBox="0 0 2000 483.6" style="enable-background:new 0 0 2000 483.6;" xml:space="preserve">
<style type="text/css">
	.st0{fill:#00ADEE;}
	.st1{fill:#1E3463;}
	.st2{fill:#FFFFFF;}
</style>
<path id="XMLID_58_" class="st0" d="M448.2,31.9c-7.1-7.2-17.2-11.6-28.1-11.6H59.3c-10.9,0-20.9,4.5-28.1,11.6
	C24.1,39,19.6,49,19.6,59.9v360.8c0,10.9,4.5,20.9,11.6,28.1c7.1,7.2,17.2,11.6,28.1,11.6h360.8c10.9,0,20.9-4.5,28.1-11.6
	c7.2-7.1,11.6-17.2,11.6-28.1V59.9C459.9,49,455.4,39,448.2,31.9z"/>
<g id="XMLID_53_">
	<path id="XMLID_57_" class="st1" d="M196.4,344.4l55.2-110.3c3.2-6.3,0.6-14-5.7-17.2c-6.3-3.2-14-0.6-17.2,5.7L173.5,333
		c-3.2,6.3-0.6,14,5.7,17.2C185.6,353.3,193.2,350.8,196.4,344.4"/>
	<path id="XMLID_56_" class="st2" d="M196.4,333l-55.2-110.3c-3.2-6.3-10.9-8.9-17.2-5.7c-6.3,3.2-8.9,10.9-5.7,17.2l55.2,110.3
		c3.2,6.3,10.9,8.9,17.2,5.7C197,347,199.6,339.3,196.4,333"/>
	<path id="XMLID_55_" class="st1" d="M307.5,344.4l55.2-110.3c3.2-6.3,0.6-14-5.7-17.2s-14-0.6-17.2,5.7L284.6,333
		c-3.2,6.3-0.6,14,5.7,17.2C296.6,353.3,304.3,350.8,307.5,344.4"/>
	<path id="XMLID_54_" class="st2" d="M174.2,123.8l110.3,220.6c3.2,6.3,10.9,8.9,17.2,5.7c6.3-3.2,8.9-10.9,5.7-17.2L197.2,112.3
		c-3.2-6.3-10.9-8.9-17.2-5.7C173.6,109.8,171.1,117.5,174.2,123.8"/>
</g>
<g id="XMLID_3_">
	<path id="XMLID_49_" class="st1" d="M581.5,291.9c-3,0-11.4,0.1-16.9,0.8c-2.1,0.6-2.4-2.5,0-3c8.4-1.8,10-1.4,10-35.1
		c0-12.6,0-22.5,0-36.7c0-32-0.4-30.9-10-33c-2.5-0.4-2.1-3.2,0-3c5.6,0.8,13.8,1.4,16.9,1.4c2.7,0,13.1-0.4,17.8-1.4
		c2.5-0.4,2.7,2.4,0,3c-10.4,2.5-11,1.1-11,32.9c0,14.3,0,24,0,37c0,32,2.4,34,11.4,35c2.1,0.3,2,3.2,0,3
		C593.6,292.2,584.2,291.9,581.5,291.9z M588.8,240.7c-0.3,1.4-0.4-5.3,0-3.9c15.7,0.3,52,0.4,64.4,0c0.4-0.8,0.4,5.2,0,3.9
		C640.7,240.2,604.6,240.2,588.8,240.7z M660.5,291.9c-2.7,0-11.9,0.1-18.3,0.8c-1.8,0.3-2-2.7,0-3c9.1-1.3,11.4-3,11.4-35
		c0-8.4,0-23.3,0-37c0-31.8-0.8-30.9-11-32.9c-3-0.6-2.1-3.4,0-3c4.8,1,14.8,1.4,17.8,1.4c3.1,0,11.4-0.3,16.9-1.4
		c2.1-0.4,3,2.2,0,3c-9.1,2.1-10,1-10,33c0,14.2,0,28.8,0,36.7c0,33.7,1.8,33.7,10,35.1c2.7,0.4,2.2,3.4,0,3
		C671.9,291.9,663.5,291.9,660.5,291.9z"/>
	<path id="XMLID_44_" class="st1" d="M752.4,292.5c-3,0-11-0.3-17,0.3c-3.2,0-1.8-2.7-0.1-3c10-1.4,10.1-3,10.1-35.1V218
		c0-28.7-0.4-31.5-8.9-33c-3.1,0-2.8-3.7,0.4-3c5.1,0.6,10,0.6,15.5,0.6s18.1-0.6,24.3-0.6c0,1,0,2.7,0,3.5c-6.2,0-12.1,0.4-16.7,1
		c-0.3,4.5-0.4,14.2-0.4,21.6c0,1.5,0.1,21.5,0.1,27.8c0,0,0,3.1,0,3.4c0,5.5-0.1,25.7-0.1,34.6c0,12.9,2,15.3,17.7,15.5
		c0,0.8,0,2.4,0,3.4C770.6,292.6,758,292.5,752.4,292.5z M797.5,253.7c-1.5-11-2.7-12.2-14.1-13.1c-9.4-0.7-19.8-1.3-23.8-1.3V236
		c5.3,0.1,14.8-0.4,23.9-1.1c10.7-0.8,12.4-1,13.9-11.4c0.4-2.5,3.1-2.1,3,0.1c-0.3,4.9-0.6,9.7-0.6,14.9c0,3.9,0.3,10,0.6,14.8
		C800.7,256.6,797.6,256.5,797.5,253.7z M799.6,207.2c-2-15.3-6.3-21.4-22.9-21.6c0-1.4,0-1.8,0-3.5c8.9,0,18.1,0,21.2-0.3
		c0-1.7,3-1.3,2.4,0.6c0.8,2.8,2,20.1,2.2,24.6C802.8,210.2,799.9,210.2,799.6,207.2z M807.3,291.6c1.4,1.8-2,3.1-3,1.3
		c-5.1-0.1-14.6-0.1-27.1-0.1c0-1.3,0-2.4,0-3.4c19.8,0,28.8-6,32.2-20.4c0-2.7,4.1-1.8,2.8,0.7C811.1,275.3,808,288.8,807.3,291.6z
		"/>
	<path id="XMLID_40_" class="st1" d="M886,273.1c-3.7,12.4,0.6,15.3,10.4,16.7c1.5,0.3,3.4,3-0.3,3c-5.6-0.7-15.7-0.8-18.8-0.8
		c-4.5,0-10.5-0.1-17.1,0.8c-3.4,0.6-3.5-2.5-0.7-3c8.7-1.5,14.1-4.4,17.6-12.2c2.5-5.6,31.6-79.5,38.4-99.2c0-3.8,7.2-2.2,4.5,1.5
		C918.7,183.3,892.8,248.9,886,273.1z M895.2,245.5c0.4-0.8,1.3-3.4,1.5-4.2c1.1,0.8,30.8,0.6,33.9,0.3c0.4,0.8,0.7,2.2,1.4,3.5
		C926.1,244.7,900.9,244.5,895.2,245.5z M955.1,291.9c-3,0-10.1,0.4-17.8,0.8c-2,0.4-3.2-1.7-0.7-3c6-0.4,10.7-3.1,7.9-11.5
		c-8.3-23.8-26.8-70-31.5-80c1-3,5.8-15,7-18.4h0.3c0.8,3.5,5.9,14.3,7.6,18.4c3.8,9.1,28.4,71.1,31.3,78.3
		c3.9,9.7,8.9,12.6,14.6,13.2c2.7,0.6,2,3.1-0.3,3C967.1,292.3,958,291.9,955.1,291.9z"/>
	<path id="XMLID_37_" class="st1" d="M1043,292.2c-3-0.1-10.7,0-16.7,0.6c-2,0.1-2.4-2.7,0-3c7.4-1,10-1.4,10-35.1
		c0-14.2,0-22.5,0-36.7c0-31.8-0.3-30.6-10-31.8c-2.5-0.3-2.5-3,0-3c4.6,0.1,10-0.3,16-0.6c6.2-0.3,13.2-0.7,18.6-0.8
		c0.1,0.8,0.1,2.2,0.1,3.2c-2.1,0.1-6.2,0.4-7.7,0.7c-2.2,0.4-3.2,0.7-3.2,15.5c0,16.3,0,40.1,0,53.5c0,32.9,1.5,34.6,18.7,35.7
		c0,1,0,2.1,0,3.4C1063.8,293.7,1050.6,292.6,1043,292.2z M1068.7,293.9c0-1,0-2.4,0-3.4c19.8-0.3,47.8-9,47.8-52.6
		c0-35.4-17.8-53.5-55.5-52.8c-0.1-1.1,0-2-0.1-3.2c2.2-0.1,4.5-0.3,6.2-0.3c45.7-1.3,66.2,26.6,66.2,55.1
		C1133.2,264.9,1113.3,293.9,1068.7,293.9z"/>
	<path id="XMLID_33_" class="st1" d="M1379.9,273.1c-3.7,12.4,0.6,15.3,10.4,16.7c1.5,0.3,3.4,3-0.3,3c-5.6-0.7-15.7-0.8-18.8-0.8
		c-4.5,0-10.5-0.1-17.1,0.8c-3.4,0.6-3.5-2.5-0.7-3c8.7-1.5,14.1-4.4,17.6-12.2c2.5-5.6,31.6-79.5,38.4-99.2c0-3.8,7.2-2.2,4.5,1.5
		C1412.5,183.3,1386.6,248.9,1379.9,273.1z M1389,245.5c0.4-0.8,1.3-3.4,1.5-4.2c1.1,0.8,30.8,0.6,33.9,0.3c0.4,0.8,0.7,2.2,1.4,3.5
		C1419.9,244.7,1394.8,244.5,1389,245.5z M1448.9,291.9c-3,0-10.1,0.4-17.8,0.8c-2,0.4-3.2-1.7-0.7-3c6-0.4,10.7-3.1,7.9-11.5
		c-8.3-23.8-26.8-70-31.5-80c1-3,5.8-15,7-18.4h0.3c0.8,3.5,5.9,14.3,7.6,18.4c3.8,9.1,28.4,71.1,31.3,78.3
		c3.9,9.7,8.9,12.6,14.6,13.2c2.7,0.6,2,3.1-0.3,3C1461,292.3,1451.8,291.9,1448.9,291.9z"/>
	<path id="XMLID_25_" class="st1" d="M1542.1,187.2c-2.5,0.3-9.1,0.4-13.6,0.6c-12.2,0.4-18.4,3.4-22.8,19.7c-0.7,2.4-3.5,2-3-0.7
		c1.7-7.4,2-20.1,2-23.6c-0.7-1.8,1.5-2.7,2.7-1.5c3.9,1.4,11.5,2.4,20.8,2.4c6.9,0,14.3,0.1,15.3,0.1
		C1543.3,184.8,1542.7,186.1,1542.1,187.2z M1548.7,291.8c-2.5,0-13.3,0-20.2,1c-2.1,0.4-2.2-2.5-0.6-3c12.2-1.8,14.3-3,14.3-35.1
		c0-13.9,0.1-63.1-0.1-67.5c0.6-1.1,1.1-2.4,1.4-3.1c1.1,0,11.2,0,11.9-0.1c0.3,1,0.3,2,0.7,3.2c-0.7,8.6-0.4,54.5-0.4,67.6
		c0,32.2,1.3,32.9,14.8,35c1.8,0.3,1.5,3.4-0.4,3C1564.1,292,1551.5,291.8,1548.7,291.8z M1593.7,209.1c-0.1,3-2.7,2.5-3-0.1
		c-1.8-17.3-8.4-20.5-21.5-21.4c-3.9-0.3-8.7-0.4-13.1-0.4c-0.4-1.4-0.4-2.2-0.7-3.2c3,0.1,10.1,0,14.1-0.3c8-0.4,18.4-1.1,23.6-1.8
		c1.5-1.3,3.4,0.1,2.2,2C1595.1,185,1594,194.7,1593.7,209.1z"/>
	<path id="XMLID_19_" class="st1" d="M1659.4,292.5c-3,0-11-0.3-17,0.3c-3.2,0-1.8-2.7-0.1-3c10-1.4,10.1-3,10.1-35.1V218
		c0-28.7-0.4-31.5-8.9-33c-3.1,0-2.8-3.7,0.4-3c5.1,0.6,10,0.6,15.5,0.6s18.1-0.6,24.3-0.6c0,1,0,2.7,0,3.5c-6.2,0-12.1,0.4-16.7,1
		c-0.3,4.5-0.4,14.2-0.4,21.6c0,1.5,0.1,21.5,0.1,27.8c0,0,0,3.1,0,3.4c0,5.5-0.1,25.7-0.1,34.6c0,12.9,2,15.3,17.7,15.5
		c0,0.8,0,2.4,0,3.4C1677.7,292.6,1665,292.5,1659.4,292.5z M1704.5,253.7c-1.5-11-2.7-12.2-14.1-13.1c-9.4-0.7-19.8-1.3-23.8-1.3
		V236c5.3,0.1,14.8-0.4,23.9-1.1c10.7-0.8,12.4-1,13.9-11.4c0.4-2.5,3.1-2.1,3,0.1c-0.3,4.9-0.6,9.7-0.6,14.9c0,3.9,0.3,10,0.6,14.8
		C1707.7,256.6,1704.6,256.5,1704.5,253.7z M1706.6,207.2c-2-15.3-6.3-21.4-22.9-21.6c0-1.4,0-1.8,0-3.5c8.9,0,18.1,0,21.2-0.3
		c0-1.7,3-1.3,2.4,0.6c0.8,2.8,2,20.1,2.2,24.6C1709.8,210.2,1706.9,210.2,1706.6,207.2z M1714.3,291.6c1.4,1.8-2,3.1-3,1.3
		c-5.1-0.1-14.6-0.1-27.1-0.1c0-1.3,0-2.4,0-3.4c19.8,0,28.8-6,32.2-20.4c0-2.7,4.1-1.8,2.8,0.7
		C1718.1,275.3,1715,288.8,1714.3,291.6z"/>
	<path id="XMLID_16_" class="st1" d="M1787.9,291.9c-3.5,0-14.2,0.7-17,0.8c-2.2,0.1-2.4-2.8-0.1-3c9.4-0.7,10.3-2.1,10.3-35.1V218
		c0-31.5-2-31.9-8.7-33.2c-2.2-0.4-1.4-3.2,0.3-3c4.2,0.6,9,0.6,12.2,0.6c3.7,0,15-1,20.5-1.1c0,1.3,0,2.1,0,3.2
		c-3.9,0-8.9,0.4-11,0.8c0.7,4.8,0.4,15.5,0.4,22.8v46.5c0,32.5,2,34.2,11.5,35.1c2.2,0.1,2,3.1-0.3,3
		C1799.2,292.2,1792.2,291.9,1787.9,291.9z M1856.7,293.6c-19.5,0-29.1-13.2-52.7-55.1c-1.3,0.1-2.5,0.1-3.9,0.1
		c-1.8,0-3.9-0.3-5.3-0.6c0-0.8,0-2.2,0-3.7c1,0.3,2.8,0.6,5.5,0.6c14.3,0,26.3-5.5,26.3-24c0-16.7-5.5-26.4-21.2-26.4
		c0-1.1,0-2,0-3.2c25.2,0,36.1,12.4,36.1,28.8c0,12.5-7.9,21.9-22.1,26c13.1,24.7,33.2,52.8,42.4,52.8c2.1,0,3.2-0.4,5.1-1.8
		c2.1-1.5,3.9,0.4,2,2.2C1866.3,291.5,1862.2,293.6,1856.7,293.6z"/>
	<path id="XMLID_12_" class="st1" d="M1940.8,293.4c-8.7,0-15.3-0.4-22.5-3.4c-1.1,2.4-4.6-0.1-3-2.1l-2.7-24.2
		c-0.1-1.8,2.1-2.8,3-0.6c3.7,16.2,9.6,26.1,25.2,26.1c5.5,0,11.5-1.5,14.2-2.8c0.4,1,1.3,2.4,1.8,3.7
		C1953.6,291.5,1948.1,293.4,1940.8,293.4z M1956.9,290.2c-0.6-1.3-1.4-2.7-1.8-3.7c6.6-3,10.7-8,10.7-17c0-13.6-7.7-19.8-16.9-25.2
		c-3.8-2.2-7.7-4.4-11.5-6.7c-11.5-7.3-16.4-16.6-16.4-26.1c0-18,16.9-26.8,19.7-28.1c0.6,1.4,1.1,2.5,1.5,3.5
		c-6.7,3-9.8,8.3-9.8,16.3c0,7.4,2.8,14.3,11.8,20.5c3,2.1,11.1,6.7,14.6,8.7c13.2,7.4,19.8,17.4,19.8,28.1
		C1978.5,269.8,1974.1,282.9,1956.9,290.2z M1972.9,205c-3.2-10.4-6.9-20-20.2-20c-3.8,0-7.9,0.7-10.5,1.8c-0.4-1-1-2.1-1.5-3.5
		c4.1-2,10.1-3,15-3c5.6,0,10.8,0.8,15.5,2.2c0.7-2.1,3.7-1.1,3,2c0,0.8,0.8,13.5,1.8,19.7C1976.7,206.9,1973.3,207.9,1972.9,205z"
		/>
	<path id="XMLID_4_" class="st1" d="M1335.1,182c-3.5,0.7-12.8,0.8-17.3,0.8c-3.1,0-13.2,0-18.8-0.8c-1.8-0.4-3.1,2.5-0.4,3
		c11.7,2.1,12.8,6.3,11.5,11.7c-4.2,19.1-21.9,58.7-29.2,77.3c-8.3-20-14.6-35.4-23-55.4c4.9-11.2,8.6-19.5,9.3-21.4
		c3.4-8,5.1-10.1,17.8-12.4c2.8-0.3,2.1-3.4-0.4-3c-10,0-28.2,1.4-33.3,1.4c-4.2,0-22.6-0.1-30.6-1.3c-3.4-0.4-3.4,2.4-0.4,3
		c5.6,0.8,10.3,5.2,13.9,13.2c1.3,2.8,7.4,17.1,14.1,33c-4.2,11-10.5,26-17.6,42.9c-4.5-11.2-29.5-74.9-30.2-77.6
		c-2.4-8,0.6-10.7,7.4-11.5c2.7-0.4,2.7-3.2-0.3-3c-5.5,0.4-15,0.7-18.4,0.7c-3.4,0-12.2-0.3-18-0.7c-2.5-0.1-3,2.7-0.3,3
		c6.5,0.7,10.4,4.1,14.5,13.1c2.8,6.2,27.7,69.3,31.2,78.4c3.7,9.7,5.5,13.2,6.9,17.8c-0.4,2.7,3,3,3,0.3c1.5-5.2,4.1-11.2,6-16
		c9.8-24.5,12.6-30.8,17.7-43c7.7,18.3,15.2,36.1,17,40.9c3.7,9.7,5.5,13.2,6.9,17.8c-0.1,3,3.5,2.8,3-0.1
		c1.5-5.6,3.4-10.1,5.6-16.3c11.4-28,32.3-72.8,34.2-77.4c3.9-10.1,8.3-13.5,18.8-15.5C1338.5,184.7,1337.5,181.4,1335.1,182z
		 M1243.6,195c0-4.4,3.6-8,8-8c4.4,0,8,3.6,8,8c0,4.8-8,11.7-8,16.2C1251.6,206.7,1243.6,199.8,1243.6,195z"/>
</g>
</svg>
