<?xml version="1.0" encoding="utf-8"?>
<!-- Generator: Adobe Illustrator 19.0.0, SVG Export Plug-In . SVG Version: 6.00 Build 0)  -->
<svg version="1.1" id="Layer_1" xmlns="http://www.w3.org/2000/svg" xmlns:xlink="http://www.w3.org/1999/xlink" x="0px" y="0px"
	 viewBox="0 0 2000 1316.4" style="enable-background:new 0 0 2000 1316.4;" xml:space="preserve">
<style type="text/css">
	.st0{fill:#8DD7F7;}
	.st1{fill:#003953;}
	.st2{fill:#FFFFFF;}
</style>
<g id="XMLID_2_">
	<path id="XMLID_59_" class="st0" d="M1370.8,62.3c-13.3-13.3-31.8-21.6-52.1-21.6H649.5c-20.3,0-38.8,8.3-52.1,21.6
		c-13.3,13.2-21.6,31.8-21.6,52.1v669.2c0,20.3,8.3,38.8,21.6,52.1c13.2,13.3,31.8,21.6,52.1,21.6h669.2c20.3,0,38.8-8.3,52.1-21.6
		c13.3-13.3,21.6-31.8,21.6-52.1V114.4C1392.4,94.2,1384.1,75.6,1370.8,62.3z"/>
	<g id="XMLID_3_">
		<g id="XMLID_54_">
			<path id="XMLID_58_" class="st1" d="M903.8,642l102.3-204.6c5.9-11.7,1.1-26-10.6-31.9c-11.7-5.9-26-1.1-31.9,10.6L861.3,620.8
				c-5.9,11.7-1.1,26,10.6,31.9C883.6,658.5,897.9,653.8,903.8,642"/>
			<path id="XMLID_57_" class="st2" d="M903.8,620.8L801.5,416.2c-5.9-11.7-20.1-16.5-31.9-10.6s-16.5,20.1-10.6,31.9L861.3,642
				c5.9,11.7,20.1,16.5,31.9,10.6C904.9,646.8,909.6,632.5,903.8,620.8"/>
			<path id="XMLID_56_" class="st1" d="M1109.7,642L1212,437.4c5.9-11.7,1.1-26-10.6-31.9c-11.7-5.9-26-1.1-31.9,10.6l-102.3,204.6
				c-5.9,11.7-1.1,26,10.6,31.9C1089.6,658.5,1103.9,653.8,1109.7,642"/>
			<path id="XMLID_55_" class="st2" d="M862.6,232.9L1067.2,642c5.9,11.7,20.1,16.5,31.9,10.6c11.7-5.9,16.5-20.1,10.6-31.9
				L905.1,211.6c-5.9-11.7-20.1-16.5-31.9-10.6C861.5,206.8,856.8,221.1,862.6,232.9"/>
		</g>
		<g id="XMLID_4_">
			<path id="XMLID_50_" class="st1" d="M76.5,1274.3c-4,0-15.3,0.2-22.7,1.1c-2.8,0.8-3.2-3.4,0-4c11.4-2.5,13.4-1.9,13.4-47.3
				c0-17,0-30.3,0-49.4c0-43.1-0.6-41.6-13.4-44.5c-3.4-0.6-2.8-4.4,0-4c7.6,1.1,18.5,1.9,22.7,1.9c3.6,0,17.6-0.6,24-1.9
				c3.4-0.6,3.6,3.2,0,4c-14,3.4-14.8,1.5-14.8,44.3c0,19.3,0,32.4,0,49.8c0,43.1,3.2,45.8,15.3,47.1c2.8,0.4,2.6,4.4,0,4
				C92.7,1274.6,80.1,1274.3,76.5,1274.3z M86.3,1205.4c-0.4,1.9-0.6-7.2,0-5.3c21.2,0.4,70,0.6,86.6,0c0.6-1.1,0.6,7,0,5.3
				C156.1,1204.6,107.5,1204.6,86.3,1205.4z M182.8,1274.3c-3.6,0-16.1,0.2-24.6,1.1c-2.5,0.4-2.6-3.6,0-4
				c12.3-1.7,15.3-4,15.3-47.1c0-11.4,0-31.4,0-49.8c0-42.8-1.1-41.6-14.8-44.3c-4-0.8-2.8-4.5,0-4c6.4,1.3,19.9,1.9,24,1.9
				c4.2,0,15.3-0.4,22.7-1.9c2.8-0.6,4,3,0,4c-12.3,2.8-13.4,1.3-13.4,44.5c0,19.1,0,38.8,0,49.4c0,45.4,2.5,45.4,13.4,47.3
				c3.6,0.6,3,4.5,0,4C198.1,1274.3,186.8,1274.3,182.8,1274.3z"/>
			<path id="XMLID_45_" class="st1" d="M306.4,1275c-4,0-14.8-0.4-22.9,0.4c-4.4,0-2.5-3.6-0.2-4c13.4-1.9,13.6-4,13.6-47.3v-49.4
				c0-38.6-0.6-42.4-11.9-44.5c-4.2,0-3.8-4.9,0.6-4c6.8,0.8,13.4,0.8,20.8,0.8s24.4-0.8,32.7-0.8c0,1.3,0,3.6,0,4.7
				c-8.3,0-16.3,0.6-22.5,1.3c-0.4,6.1-0.6,19.1-0.6,29.1c0,2.1,0.2,28.9,0.2,37.5c0,0,0,4.2,0,4.5c0,7.4-0.2,34.6-0.2,46.5
				c0,17.4,2.6,20.6,23.8,20.8c0,1.1,0,3.2,0,4.5C331,1275.2,314,1275,306.4,1275z M367.2,1222.8c-2.1-14.8-3.6-16.5-18.9-17.6
				c-12.7-0.9-26.7-1.7-32-1.7v-4.5c7.2,0.2,19.9-0.6,32.2-1.5c14.4-1.1,16.6-1.3,18.7-15.3c0.6-3.4,4.2-2.8,4,0.2
				c-0.4,6.6-0.8,13.1-0.8,20.1c0,5.3,0.4,13.4,0.8,19.9C371.5,1226.8,367.4,1226.6,367.2,1222.8z M370,1160.2
				c-2.6-20.6-8.5-28.8-30.8-29.1c0-1.9,0-2.5,0-4.7c11.9,0,24.4,0,28.6-0.4c0-2.3,4-1.7,3.2,0.8c1.1,3.8,2.6,27.1,3,33.1
				C374.4,1164.3,370.4,1164.3,370,1160.2z M380.4,1273.9c1.9,2.5-2.6,4.2-4,1.7c-6.8-0.2-19.7-0.2-36.5-0.2c0-1.7,0-3.2,0-4.5
				c26.7,0,38.8-8.1,43.3-27.4c0-3.6,5.5-2.5,3.8,0.9C385.5,1251.9,381.4,1270.1,380.4,1273.9z"/>
			<path id="XMLID_41_" class="st1" d="M486.4,1248.9c-4.9,16.7,0.8,20.6,14,22.5c2.1,0.4,4.5,4-0.4,4c-7.6-0.9-21.2-1.1-25.4-1.1
				c-6.1,0-14.2-0.2-23.1,1.1c-4.5,0.8-4.7-3.4-0.9-4c11.7-2.1,18.9-5.9,23.6-16.5c3.4-7.6,42.6-107.1,51.6-133.6
				c0-5.1,9.7-3,6.1,2.1C530.3,1128,495.5,1216.4,486.4,1248.9z M498.7,1211.8c0.6-1.1,1.7-4.5,2.1-5.7c1.5,1.1,41.4,0.8,45.6,0.4
				c0.6,1.1,0.9,3,1.9,4.7C540.3,1210.7,506.4,1210.5,498.7,1211.8z M579.3,1274.3c-4,0-13.6,0.6-24,1.1c-2.6,0.6-4.4-2.3-0.9-4
				c8.1-0.6,14.4-4.2,10.6-15.5c-11.2-32-36.1-94.2-42.4-107.6c1.3-4,7.8-20.2,9.5-24.8h0.4c1.1,4.7,7.9,19.3,10.2,24.8
				c5.1,12.3,38.2,95.7,42.2,105.4c5.3,13.1,11.9,17,19.7,17.8c3.6,0.8,2.6,4.2-0.4,4C595.5,1274.8,583.3,1274.3,579.3,1274.3z"/>
			<path id="XMLID_38_" class="st1" d="M697.7,1274.6c-4-0.2-14.4,0-22.5,0.8c-2.6,0.2-3.2-3.6,0-4c10-1.3,13.4-1.9,13.4-47.3
				c0-19.1,0-30.3,0-49.4c0-42.8-0.4-41.2-13.4-42.8c-3.4-0.4-3.4-4,0-4c6.2,0.2,13.4-0.4,21.6-0.8c8.3-0.4,17.8-0.9,25-1.1
				c0.2,1.1,0.2,3,0.2,4.4c-2.8,0.2-8.3,0.6-10.4,0.9c-3,0.6-4.4,0.9-4.4,20.8c0,21.9,0,53.9,0,72.1c0,44.3,2.1,46.5,25.2,48.1
				c0,1.3,0,2.8,0,4.5C725.7,1276.7,707.9,1275.2,697.7,1274.6z M732.3,1276.9c0-1.3,0-3.2,0-4.5c26.7-0.4,64.3-12.1,64.3-70.8
				c0-47.7-24-72.1-74.7-71.1c-0.2-1.5,0-2.6-0.2-4.4c3-0.2,6.1-0.4,8.3-0.4c61.5-1.7,89.1,35.8,89.1,74.2
				C819.1,1237.9,792.3,1276.9,732.3,1276.9z"/>
			<path id="XMLID_34_" class="st1" d="M1151.2,1248.9c-4.9,16.7,0.8,20.6,14,22.5c2.1,0.4,4.5,4-0.4,4c-7.6-0.9-21.2-1.1-25.3-1.1
				c-6.1,0-14.2-0.2-23.1,1.1c-4.5,0.8-4.7-3.4-0.9-4c11.7-2.1,18.9-5.9,23.6-16.5c3.4-7.6,42.6-107.1,51.6-133.6
				c0-5.1,9.6-3,6.1,2.1C1195.1,1128,1160.3,1216.4,1151.2,1248.9z M1163.5,1211.8c0.6-1.1,1.7-4.5,2.1-5.7
				c1.5,1.1,41.4,0.8,45.6,0.4c0.6,1.1,0.9,3,1.9,4.7C1205.1,1210.7,1171.2,1210.5,1163.5,1211.8z M1244.1,1274.3
				c-4,0-13.6,0.6-24,1.1c-2.6,0.6-4.4-2.3-0.9-4c8.1-0.6,14.4-4.2,10.6-15.5c-11.2-32-36.1-94.2-42.4-107.6
				c1.3-4,7.8-20.2,9.5-24.8h0.4c1.1,4.7,7.9,19.3,10.2,24.8c5.1,12.3,38.2,95.7,42.2,105.4c5.3,13.1,11.9,17,19.7,17.8
				c3.6,0.8,2.6,4.2-0.4,4C1260.3,1274.8,1248.1,1274.3,1244.1,1274.3z"/>
			<path id="XMLID_26_" class="st1" d="M1369.6,1133.3c-3.4,0.4-12.3,0.6-18.4,0.8c-16.5,0.6-24.8,4.5-30.6,26.5
				c-0.9,3.2-4.7,2.6-4-0.9c2.3-10,2.6-27.1,2.6-31.8c-0.9-2.5,2.1-3.6,3.6-2.1c5.3,1.9,15.5,3.2,28,3.2c9.3,0,19.3,0.2,20.6,0.2
				C1371.1,1130.1,1370.3,1131.8,1369.6,1133.3z M1378.5,1274.1c-3.4,0-18,0-27.2,1.3c-2.8,0.6-3-3.4-0.8-4
				c16.5-2.5,19.3-4,19.3-47.3c0-18.7,0.2-84.9-0.2-90.8c0.8-1.5,1.5-3.2,1.9-4.2c1.5,0,15.1,0,16.1-0.2c0.4,1.3,0.4,2.6,0.9,4.4
				c-0.9,11.5-0.6,73.4-0.6,91c0,43.3,1.7,44.3,19.9,47.1c2.5,0.4,2.1,4.5-0.6,4C1399.1,1274.5,1382.3,1274.1,1378.5,1274.1z
				 M1439,1162.8c-0.2,4-3.6,3.4-4-0.2c-2.5-23.3-11.4-27.6-28.9-28.8c-5.3-0.4-11.7-0.6-17.6-0.6c-0.6-1.9-0.6-3-0.9-4.4
				c4,0.2,13.6,0,18.9-0.4c10.8-0.6,24.8-1.5,31.8-2.5c2.1-1.7,4.5,0.2,3,2.6C1440.9,1130.3,1439.4,1143.3,1439,1162.8z"/>
			<path id="XMLID_20_" class="st1" d="M1527.4,1275c-4,0-14.8-0.4-22.9,0.4c-4.4,0-2.5-3.6-0.2-4c13.4-1.9,13.6-4,13.6-47.3v-49.4
				c0-38.6-0.6-42.4-11.9-44.5c-4.2,0-3.8-4.9,0.6-4c6.8,0.8,13.4,0.8,20.8,0.8s24.4-0.8,32.7-0.8c0,1.3,0,3.6,0,4.7
				c-8.3,0-16.3,0.6-22.5,1.3c-0.4,6.1-0.6,19.1-0.6,29.1c0,2.1,0.2,28.9,0.2,37.5c0,0,0,4.2,0,4.5c0,7.4-0.2,34.6-0.2,46.5
				c0,17.4,2.6,20.6,23.8,20.8c0,1.1,0,3.2,0,4.5C1552,1275.2,1535,1275,1527.4,1275z M1588.2,1222.8c-2.1-14.8-3.6-16.5-18.9-17.6
				c-12.7-0.9-26.7-1.7-32-1.7v-4.5c7.2,0.2,19.9-0.6,32.2-1.5c14.4-1.1,16.6-1.3,18.7-15.3c0.6-3.4,4.2-2.8,4,0.2
				c-0.4,6.6-0.8,13.1-0.8,20.1c0,5.3,0.4,13.4,0.8,19.9C1592.5,1226.8,1588.4,1226.6,1588.2,1222.8z M1591,1160.2
				c-2.6-20.6-8.5-28.8-30.8-29.1c0-1.9,0-2.5,0-4.7c11.9,0,24.4,0,28.6-0.4c0-2.3,4-1.7,3.2,0.8c1.1,3.8,2.6,27.1,3,33.1
				C1595.4,1164.3,1591.4,1164.3,1591,1160.2z M1601.4,1273.9c1.9,2.5-2.6,4.2-4,1.7c-6.8-0.2-19.7-0.2-36.5-0.2c0-1.7,0-3.2,0-4.5
				c26.7,0,38.8-8.1,43.3-27.4c0-3.6,5.5-2.5,3.8,0.9C1606.5,1251.9,1602.4,1270.1,1601.4,1273.9z"/>
			<path id="XMLID_17_" class="st1" d="M1700.4,1274.3c-4.7,0-19.1,0.9-22.9,1.1c-3,0.2-3.2-3.8-0.2-4c12.7-0.9,13.8-2.8,13.8-47.3
				v-49.4c0-42.4-2.6-42.9-11.7-44.7c-3-0.6-1.9-4.4,0.4-4c5.7,0.8,12.1,0.8,16.5,0.8c4.9,0,20.2-1.3,27.6-1.5c0,1.7,0,2.8,0,4.4
				c-5.3,0-11.9,0.6-14.8,1.1c0.9,6.4,0.6,20.8,0.6,30.6v62.6c0,43.7,2.6,46,15.5,47.3c3,0.2,2.6,4.2-0.4,4
				C1715.7,1274.6,1706.2,1274.3,1700.4,1274.3z M1793.1,1276.5c-26.3,0-39.2-17.8-70.9-74.2c-1.7,0.2-3.4,0.2-5.3,0.2
				c-2.5,0-5.3-0.4-7.2-0.8c0-1.1,0-3,0-4.9c1.3,0.4,3.8,0.8,7.4,0.8c19.3,0,35.4-7.4,35.4-32.4c0-22.5-7.4-35.6-28.6-35.6
				c0-1.5,0-2.6,0-4.4c33.9,0,48.6,16.7,48.6,38.8c0,16.8-10.6,29.5-29.7,35c17.6,33.3,44.6,71.1,57.1,71.1c2.8,0,4.4-0.6,6.8-2.5
				c2.8-2.1,5.3,0.6,2.6,3C1805.9,1273.7,1800.4,1276.5,1793.1,1276.5z"/>
			<path id="XMLID_13_" class="st1" d="M1906.3,1276.3c-11.7,0-20.6-0.6-30.3-4.5c-1.5,3.2-6.2-0.2-4-2.8l-3.6-32.5
				c-0.2-2.5,2.8-3.8,4-0.8c4.9,21.8,12.9,35.2,33.9,35.2c7.4,0,15.5-2.1,19.1-3.8c0.6,1.3,1.7,3.2,2.5,4.9
				C1923.5,1273.7,1916.1,1276.3,1906.3,1276.3z M1927.9,1272c-0.8-1.7-1.9-3.6-2.5-4.9c8.9-4,14.4-10.8,14.4-22.9
				c0-18.3-10.4-26.7-22.7-33.9c-5.1-3-10.4-5.9-15.5-9.1c-15.5-9.8-22.1-22.3-22.1-35.2c0-24.2,22.7-36.1,26.5-37.8
				c0.8,1.9,1.5,3.4,2.1,4.7c-9.1,4-13.2,11.2-13.2,21.9c0,10,3.8,19.3,15.9,27.6c4,2.8,14.9,9.1,19.7,11.7
				c17.8,10,26.7,23.5,26.7,37.8C1957,1244.6,1951.1,1262.2,1927.9,1272z M1949.4,1157.3c-4.4-14-9.3-26.9-27.2-26.9
				c-5.1,0-10.6,0.9-14.2,2.5c-0.6-1.3-1.3-2.8-2.1-4.7c5.5-2.6,13.6-4,20.2-4c7.6,0,14.6,1.1,20.8,3c0.9-2.8,4.9-1.5,4,2.6
				c0,1.1,1.1,18.2,2.5,26.5C1954.6,1159.8,1950,1161.1,1949.4,1157.3z"/>
			<path id="XMLID_5_" class="st1" d="M1090.9,1126.3c-4.7,0.9-17.2,1.1-23.3,1.1c-4.2,0-17.8,0-25.3-1.1c-2.5-0.6-4.2,3.4-0.6,4
				c15.7,2.8,17.2,8.5,15.5,15.7c-5.7,25.7-29.5,79.1-39.3,104.1c-11.2-26.9-19.7-47.7-31-74.5c6.6-15.1,11.5-26.3,12.5-28.8
				c4.5-10.8,6.8-13.6,24-16.7c3.8-0.4,2.8-4.5-0.6-4c-13.4,0-38,1.9-44.8,1.9c-5.7,0-30.5-0.2-41.2-1.7c-4.5-0.6-4.5,3.2-0.6,4
				c7.6,1.1,13.8,7,18.7,17.8c1.7,3.8,10,23.1,18.9,44.5c-5.7,14.8-14.2,35-23.6,57.7c-6.1-15.1-39.7-100.8-40.7-104.4
				c-3.2-10.8,0.8-14.4,10-15.5c3.6-0.6,3.6-4.4-0.4-4c-7.4,0.6-20.2,0.9-24.8,0.9c-4.5,0-16.5-0.4-24.2-0.9c-3.4-0.2-4,3.6-0.4,4
				c8.7,0.9,14,5.5,19.5,17.6c3.8,8.3,37.3,93.3,42,105.6c4.9,13.1,7.4,17.8,9.3,24c-0.6,3.6,4,4,4,0.4c2.1-7,5.5-15.1,8.1-21.6
				c13.2-32.9,17-41.4,23.8-57.9c10.4,24.6,20.4,48.6,22.9,55.1c4.9,13.1,7.4,17.8,9.3,24c-0.2,4,4.7,3.8,4-0.2
				c2.1-7.6,4.5-13.6,7.6-21.9c15.3-37.7,43.5-98,46-104.2c5.3-13.6,11.2-18.2,25.3-20.8C1095.4,1129.9,1094.1,1125.6,1090.9,1126.3
				z M967.7,1143.8c0-6,4.8-10.8,10.8-10.8c6,0,10.8,4.8,10.8,10.8c0,6.4-10.8,15.8-10.8,21.8
				C978.5,1159.6,967.7,1150.2,967.7,1143.8z"/>
		</g>
	</g>
</g>
</svg>
