<?xml version="1.0" encoding="utf-8"?>
<!-- Generator: Adobe Illustrator 19.0.0, SVG Export Plug-In . SVG Version: 6.00 Build 0)  -->
<svg version="1.1" id="Layer_1" xmlns="http://www.w3.org/2000/svg" xmlns:xlink="http://www.w3.org/1999/xlink" x="0px" y="0px"
	 viewBox="0 0 1500 1500" style="enable-background:new 0 0 1500 1500;" xml:space="preserve">
<style type="text/css">
	.st0{fill:#A7A9AC;}
</style>
<g>
	<g>
		<path class="st0" d="M546.2,1038l237.7-475.5c13.6-27.3,2.6-60.4-24.7-74.1c-27.3-13.6-60.4-2.6-74.1,24.7L447.4,988.6
			c-13.6,27.3-2.6,60.4,24.7,74.1C499.4,1076.4,532.6,1065.3,546.2,1038"/>
		<path d="M546.2,988.6L308.5,513.2c-13.6-27.3-46.8-38.3-74.1-24.7c-27.3,13.6-38.3,46.8-24.7,74.1L447.4,1038
			c13.6,27.3,46.8,38.3,74.1,24.7C548.8,1049.1,559.9,1015.9,546.2,988.6"/>
		<path class="st0" d="M1024.9,1038l237.7-475.5c13.6-27.3,2.6-60.4-24.7-74.1c-27.3-13.6-60.4-2.6-74.1,24.7L926.1,988.6
			c-13.6,27.3-2.6,60.4,24.7,74.1C978.1,1076.4,1011.3,1065.3,1024.9,1038"/>
		<path d="M450.7,87.1L926.1,1038c13.6,27.3,46.8,38.3,74.1,24.7c27.3-13.6,38.3-46.8,24.7-74.1L549.5,37.7
			C535.8,10.4,502.6-0.6,475.4,13S437,59.8,450.7,87.1"/>
	</g>
	<g>
		<path d="M88.7,1457.8c-2.9,0-11,0.1-16.3,0.8c-2,0.5-2.3-2.4,0-2.9c8.2-1.8,9.7-1.4,9.7-34c0-12.2,0-21.8,0-35.5
			c0-31-0.4-29.9-9.7-32c-2.4-0.4-2-3.1,0-2.9c5.4,0.8,13.3,1.4,16.3,1.4c2.6,0,12.6-0.4,17.3-1.4c2.4-0.4,2.6,2.3,0,2.9
			c-10.1,2.4-10.6,1.1-10.6,31.8c0,13.9,0,23.3,0,35.8c0,31,2.3,32.9,11,33.9c2,0.3,1.9,3.1,0,2.9
			C100.4,1458.1,91.2,1457.8,88.7,1457.8z M95.7,1408.3c-0.3,1.4-0.4-5.2,0-3.8c15.2,0.3,50.3,0.4,62.3,0c0.4-0.8,0.4,5,0,3.8
			C145.9,1407.8,111,1407.8,95.7,1408.3z M165.1,1457.8c-2.6,0-11.6,0.1-17.7,0.8c-1.8,0.3-1.9-2.6,0-2.9c8.8-1.2,11-2.9,11-33.9
			c0-8.2,0-22.6,0-35.8c0-30.7-0.8-29.9-10.6-31.8c-2.9-0.5-2-3.3,0-2.9c4.6,1,14.3,1.4,17.3,1.4c3,0,11-0.3,16.3-1.4
			c2-0.4,2.9,2.2,0,2.9c-8.8,2-9.7,1-9.7,32c0,13.7,0,27.9,0,35.5c0,32.6,1.8,32.6,9.7,34c2.6,0.4,2.2,3.3,0,2.9
			C176.1,1457.8,167.9,1457.8,165.1,1457.8z"/>
		<path d="M254,1458.4c-2.9,0-10.6-0.3-16.5,0.3c-3.1,0-1.8-2.6-0.1-2.9c9.7-1.4,9.8-2.9,9.8-34v-35.5c0-27.7-0.4-30.5-8.6-32
			c-3,0-2.7-3.5,0.4-2.9c4.9,0.5,9.7,0.5,15,0.5s17.5-0.5,23.5-0.5c0,1,0,2.6,0,3.4c-6,0-11.7,0.4-16.2,1
			c-0.3,4.4-0.4,13.7-0.4,20.9c0,1.5,0.1,20.8,0.1,26.9c0,0,0,3,0,3.3c0,5.3-0.1,24.9-0.1,33.5c0,12.5,1.9,14.8,17.1,15
			c0,0.8,0,2.3,0,3.3C271.7,1458.5,259.4,1458.4,254,1458.4z M297.6,1420.9c-1.5-10.6-2.6-11.8-13.6-12.6c-9.1-0.7-19.2-1.2-23-1.2
			v-3.3c5.2,0.1,14.3-0.4,23.1-1.1c10.3-0.8,12-1,13.5-11c0.4-2.4,3-2,2.9,0.1c-0.3,4.8-0.5,9.4-0.5,14.4c0,3.8,0.3,9.7,0.5,14.3
			C300.8,1423.7,297.8,1423.6,297.6,1420.9z M299.7,1375.8c-1.9-14.8-6.1-20.7-22.2-20.9c0-1.4,0-1.8,0-3.4c8.6,0,17.5,0,20.5-0.3
			c0-1.6,2.9-1.2,2.3,0.5c0.8,2.7,1.9,19.4,2.2,23.8C302.8,1378.8,299.9,1378.8,299.7,1375.8z M307.2,1457.6c1.4,1.8-1.9,3-2.9,1.2
			c-4.9-0.1-14.1-0.1-26.2-0.1c0-1.2,0-2.3,0-3.3c19.2,0,27.9-5.8,31.1-19.7c0-2.6,3.9-1.8,2.7,0.7
			C310.8,1441.8,307.8,1454.9,307.2,1457.6z"/>
		<path d="M383.3,1439.6c-3.5,12,0.5,14.8,10.1,16.2c1.5,0.3,3.3,2.9-0.3,2.9c-5.4-0.7-15.2-0.8-18.2-0.8c-4.4,0-10.2-0.1-16.6,0.8
			c-3.3,0.5-3.4-2.4-0.7-2.9c8.4-1.5,13.6-4.2,17-11.8c2.4-5.4,30.6-77,37.1-96c0-3.7,6.9-2.2,4.4,1.5
			C414.9,1352.7,389.9,1416.2,383.3,1439.6z M392.2,1413c0.4-0.8,1.2-3.3,1.5-4.1c1.1,0.8,29.8,0.5,32.8,0.3
			c0.4,0.8,0.7,2.2,1.4,3.4C422.1,1412.1,397.8,1412,392.2,1413z M450.1,1457.8c-2.9,0-9.8,0.4-17.3,0.8c-1.9,0.4-3.1-1.6-0.7-2.9
			c5.8-0.4,10.3-3,7.6-11.2c-8-23-26-67.7-30.5-77.4c1-2.9,5.6-14.6,6.8-17.8h0.3c0.8,3.4,5.7,13.9,7.3,17.8
			c3.7,8.8,27.5,68.8,30.3,75.8c3.8,9.4,8.6,12.2,14.1,12.8c2.6,0.5,1.9,3-0.3,2.9C461.8,1458.3,453,1457.8,450.1,1457.8z"/>
		<path d="M535.2,1458.1c-2.9-0.1-10.3,0-16.2,0.5c-1.9,0.1-2.3-2.6,0-2.9c7.2-1,9.7-1.4,9.7-34c0-13.7,0-21.8,0-35.5
			c0-30.7-0.3-29.6-9.7-30.7c-2.4-0.3-2.4-2.9,0-2.9c4.5,0.1,9.7-0.3,15.5-0.5c6-0.3,12.8-0.7,18-0.8c0.1,0.8,0.1,2.2,0.1,3.1
			c-2,0.1-6,0.4-7.5,0.7c-2.2,0.4-3.1,0.7-3.1,15c0,15.8,0,38.8,0,51.8c0,31.8,1.5,33.5,18.1,34.5c0,1,0,2,0,3.3
			C555.4,1459.6,542.6,1458.5,535.2,1458.1z M560.1,1459.7c0-1,0-2.3,0-3.3c19.2-0.3,46.2-8.7,46.2-50.9c0-34.3-17.3-51.8-53.7-51.1
			c-0.1-1.1,0-1.9-0.1-3.1c2.2-0.1,4.4-0.3,6-0.3c44.2-1.2,64.1,25.7,64.1,53.3C622.5,1431.7,603.2,1459.7,560.1,1459.7z"/>
		<path d="M861.2,1439.6c-3.5,12,0.5,14.8,10.1,16.2c1.5,0.3,3.3,2.9-0.3,2.9c-5.4-0.7-15.2-0.8-18.2-0.8c-4.4,0-10.2-0.1-16.6,0.8
			c-3.3,0.5-3.4-2.4-0.7-2.9c8.4-1.5,13.6-4.2,17-11.8c2.4-5.4,30.6-77,37.1-96c0-3.7,6.9-2.2,4.4,1.5
			C892.8,1352.7,867.8,1416.2,861.2,1439.6z M870.1,1413c0.4-0.8,1.2-3.3,1.5-4.1c1.1,0.8,29.8,0.5,32.8,0.3
			c0.4,0.8,0.7,2.2,1.4,3.4C900,1412.1,875.7,1412,870.1,1413z M928,1457.8c-2.9,0-9.8,0.4-17.3,0.8c-1.9,0.4-3.1-1.6-0.7-2.9
			c5.8-0.4,10.3-3,7.6-11.2c-8-23-26-67.7-30.5-77.4c1-2.9,5.6-14.6,6.8-17.8h0.3c0.8,3.4,5.7,13.9,7.3,17.8
			c3.7,8.8,27.5,68.8,30.3,75.8c3.8,9.4,8.6,12.2,14.1,12.8c2.6,0.5,1.9,3-0.3,2.9C939.7,1458.3,930.9,1457.8,928,1457.8z"/>
		<path d="M1018.2,1356.5c-2.4,0.3-8.8,0.4-13.2,0.5c-11.8,0.4-17.8,3.3-22,19c-0.7,2.3-3.4,1.9-2.9-0.7c1.6-7.2,1.9-19.4,1.9-22.8
			c-0.7-1.8,1.5-2.6,2.6-1.5c3.8,1.4,11.2,2.3,20.1,2.3c6.7,0,13.9,0.1,14.8,0.1C1019.3,1354.2,1018.8,1355.4,1018.2,1356.5z
			 M1024.6,1457.7c-2.4,0-12.9,0-19.6,1c-2,0.4-2.2-2.4-0.5-2.9c11.8-1.8,13.9-2.9,13.9-34c0-13.5,0.1-61.1-0.1-65.3
			c0.5-1.1,1.1-2.3,1.4-3c1.1,0,10.9,0,11.6-0.1c0.3,1,0.3,1.9,0.7,3.1c-0.7,8.3-0.4,52.8-0.4,65.4c0,31.1,1.2,31.8,14.3,33.9
			c1.8,0.3,1.5,3.3-0.4,2.9C1039.5,1458,1027.4,1457.7,1024.6,1457.7z M1068.1,1377.7c-0.1,2.9-2.6,2.4-2.9-0.1
			c-1.8-16.7-8.2-19.9-20.8-20.7c-3.8-0.3-8.4-0.4-12.6-0.4c-0.4-1.4-0.4-2.2-0.7-3.1c2.9,0.1,9.8,0,13.6-0.3
			c7.8-0.4,17.8-1.1,22.8-1.8c1.5-1.2,3.3,0.1,2.2,1.9C1069.5,1354.3,1068.4,1363.7,1068.1,1377.7z"/>
		<path d="M1131.7,1458.4c-2.9,0-10.6-0.3-16.5,0.3c-3.1,0-1.8-2.6-0.1-2.9c9.7-1.4,9.8-2.9,9.8-34v-35.5c0-27.7-0.4-30.5-8.6-32
			c-3,0-2.7-3.5,0.4-2.9c4.9,0.5,9.7,0.5,15,0.5s17.5-0.5,23.5-0.5c0,1,0,2.6,0,3.4c-6,0-11.7,0.4-16.2,1
			c-0.3,4.4-0.4,13.7-0.4,20.9c0,1.5,0.1,20.8,0.1,26.9c0,0,0,3,0,3.3c0,5.3-0.1,24.9-0.1,33.5c0,12.5,1.9,14.8,17.1,15
			c0,0.8,0,2.3,0,3.3C1149.4,1458.5,1137.2,1458.4,1131.7,1458.4z M1175.4,1420.9c-1.5-10.6-2.6-11.8-13.6-12.6
			c-9.1-0.7-19.2-1.2-23-1.2v-3.3c5.2,0.1,14.3-0.4,23.1-1.1c10.3-0.8,12-1,13.5-11c0.4-2.4,3-2,2.9,0.1c-0.3,4.8-0.5,9.4-0.5,14.4
			c0,3.8,0.3,9.7,0.5,14.3C1178.5,1423.7,1175.5,1423.6,1175.4,1420.9z M1177.4,1375.8c-1.9-14.8-6.1-20.7-22.2-20.9
			c0-1.4,0-1.8,0-3.4c8.6,0,17.5,0,20.5-0.3c0-1.6,2.9-1.2,2.3,0.5c0.8,2.7,1.9,19.4,2.2,23.8
			C1180.5,1378.8,1177.7,1378.8,1177.4,1375.8z M1184.9,1457.6c1.4,1.8-1.9,3-2.9,1.2c-4.9-0.1-14.1-0.1-26.2-0.1c0-1.2,0-2.3,0-3.3
			c19.2,0,27.9-5.8,31.1-19.7c0-2.6,3.9-1.8,2.7,0.7C1188.6,1441.8,1185.6,1454.9,1184.9,1457.6z"/>
		<path d="M1256,1457.8c-3.4,0-13.7,0.7-16.5,0.8c-2.2,0.1-2.3-2.7-0.1-2.9c9.1-0.7,9.9-2,9.9-34v-35.5c0-30.5-1.9-30.9-8.4-32.1
			c-2.2-0.4-1.4-3.1,0.3-2.9c4.1,0.5,8.7,0.5,11.8,0.5c3.5,0,14.6-1,19.9-1.1c0,1.2,0,2,0,3.1c-3.8,0-8.6,0.4-10.6,0.8
			c0.7,4.6,0.4,15,0.4,22v45c0,31.4,1.9,33,11.2,34c2.2,0.1,1.9,3-0.3,2.9C1267,1458.1,1260.2,1457.8,1256,1457.8z M1322.7,1459.5
			c-18.9,0-28.2-12.8-51-53.3c-1.2,0.1-2.4,0.1-3.8,0.1c-1.8,0-3.8-0.3-5.2-0.5c0-0.8,0-2.2,0-3.5c1,0.3,2.7,0.5,5.3,0.5
			c13.9,0,25.4-5.3,25.4-23.3c0-16.2-5.3-25.6-20.5-25.6c0-1.1,0-1.9,0-3.1c24.3,0,35,12,35,27.9c0,12.1-7.6,21.2-21.4,25.2
			c12.6,23.9,32.1,51.1,41.1,51.1c2,0,3.1-0.4,4.9-1.8c2-1.5,3.8,0.4,1.9,2.2C1331.9,1457.4,1328,1459.5,1322.7,1459.5z"/>
		<path d="M1404.1,1459.3c-8.4,0-14.8-0.4-21.8-3.3c-1.1,2.3-4.5-0.1-2.9-2l-2.6-23.4c-0.1-1.8,2-2.7,2.9-0.5
			c3.5,15.6,9.2,25.3,24.3,25.3c5.3,0,11.2-1.5,13.7-2.7c0.4,1,1.2,2.3,1.8,3.5C1416.4,1457.4,1411.1,1459.3,1404.1,1459.3z
			 M1419.6,1456.2c-0.5-1.2-1.4-2.6-1.8-3.5c6.4-2.9,10.3-7.8,10.3-16.5c0-13.2-7.5-19.2-16.3-24.3c-3.7-2.2-7.5-4.2-11.2-6.5
			c-11.2-7.1-15.9-16-15.9-25.3c0-17.4,16.3-26,19-27.2c0.5,1.4,1.1,2.4,1.5,3.4c-6.5,2.9-9.5,8-9.5,15.8c0,7.2,2.7,13.9,11.4,19.9
			c2.9,2,10.7,6.5,14.1,8.4c12.8,7.2,19.2,16.9,19.2,27.2C1440.5,1436.5,1436.3,1449.1,1419.6,1456.2z M1435.1,1373.8
			c-3.1-10.1-6.7-19.3-19.6-19.3c-3.7,0-7.6,0.7-10.2,1.8c-0.4-1-1-2-1.5-3.4c3.9-1.9,9.8-2.9,14.6-2.9c5.4,0,10.5,0.8,15,2.2
			c0.7-2,3.5-1.1,2.9,1.9c0,0.8,0.8,13.1,1.8,19C1438.8,1375.6,1435.5,1376.5,1435.1,1373.8z"/>
		<path d="M817.9,1351.5c-3.4,0.7-12.4,0.8-16.7,0.8c-3,0-12.8,0-18.2-0.8c-1.8-0.4-3,2.4-0.4,2.9c11.3,2,12.4,6.1,11.2,11.3
			c-4.1,18.5-21.2,56.8-28.3,74.8c-8-19.3-14.1-34.3-22.3-53.6c4.8-10.9,8.3-18.9,9-20.7c3.3-7.8,4.9-9.8,17.3-12
			c2.7-0.3,2-3.3-0.4-2.9c-9.7,0-27.3,1.4-32.2,1.4c-4.1,0-21.9-0.1-29.6-1.2c-3.3-0.4-3.3,2.3-0.4,2.9c5.4,0.8,9.9,5,13.5,12.8
			c1.2,2.7,7.2,16.6,13.6,32c-4.1,10.6-10.2,25.2-17,41.5c-4.4-10.9-28.6-72.5-29.2-75.1c-2.3-7.8,0.5-10.3,7.2-11.2
			c2.6-0.4,2.6-3.1-0.3-2.9c-5.3,0.4-14.6,0.7-17.8,0.7c-3.3,0-11.8-0.3-17.4-0.7c-2.4-0.1-2.9,2.6-0.3,2.9
			c6.3,0.7,10.1,3.9,14,12.6c2.7,6,26.8,67.1,30.2,75.9c3.5,9.4,5.3,12.8,6.7,17.3c-0.4,2.6,2.9,2.9,2.9,0.3
			c1.5-5,3.9-10.9,5.8-15.5c9.5-23.7,12.2-29.8,17.1-41.6c7.5,17.7,14.7,35,16.5,39.6c3.5,9.4,5.3,12.8,6.7,17.3
			c-0.1,2.9,3.4,2.7,2.9-0.1c1.5-5.4,3.3-9.8,5.4-15.8c11-27.1,31.3-70.4,33-74.9c3.8-9.8,8-13.1,18.2-15
			C821.1,1354.1,820.2,1350.9,817.9,1351.5z M729.3,1364.1c0-4.3,3.5-7.8,7.8-7.8c4.3,0,7.8,3.5,7.8,7.8c0,4.6-7.8,11.3-7.8,15.6
			C737.1,1375.4,729.3,1368.7,729.3,1364.1z"/>
	</g>
</g>
</svg>
