<?xml version="1.0" encoding="utf-8"?>
<!-- Generator: Adobe Illustrator 19.0.0, SVG Export Plug-In . SVG Version: 6.00 Build 0)  -->
<svg version="1.1" id="Layer_1" xmlns="http://www.w3.org/2000/svg" xmlns:xlink="http://www.w3.org/1999/xlink" x="0px" y="0px"
	 viewBox="0 0 2000 198.2" style="enable-background:new 0 0 2000 198.2;" xml:space="preserve">
<style type="text/css">
	.st0{fill:#231F20;}
</style>
<g id="XMLID_3_">
	<path id="XMLID_49_" class="st0" d="M38.5,176.4c-4.1,0-15.8,0.2-23.5,1.2c-2.9,0.8-3.3-3.5,0-4.1c11.7-2.5,13.9-2,13.9-48.9
		c0-17.6,0-31.3,0-51c0-44.6-0.6-43-13.9-46c-3.5-0.6-2.9-4.5,0-4.1c7.8,1.2,19.2,2,23.5,2c3.7,0,18.2-0.6,24.8-2
		c3.5-0.6,3.7,3.3,0,4.1C48.8,31.1,48,29.1,48,73.3c0,19.9,0,33.4,0,51.4c0,44.6,3.3,47.3,15.8,48.7c2.9,0.4,2.7,4.5,0,4.1
		C55.3,176.8,42.2,176.4,38.5,176.4z M48.6,105.2c-0.4,2-0.6-7.4,0-5.5c21.9,0.4,72.4,0.6,89.6,0c0.6-1.2,0.6,7.2,0,5.5
		C120.8,104.4,70.5,104.4,48.6,105.2z M148.4,176.4c-3.7,0-16.6,0.2-25.4,1.2c-2.5,0.4-2.7-3.7,0-4.1c12.7-1.8,15.8-4.1,15.8-48.7
		c0-11.7,0-32.5,0-51.4c0-44.2-1.2-43-15.3-45.8c-4.1-0.8-2.9-4.7,0-4.1c6.6,1.4,20.5,2,24.8,2c4.3,0,15.8-0.4,23.5-2
		c2.9-0.6,4.1,3.1,0,4.1c-12.7,2.9-13.9,1.4-13.9,46c0,19.8,0,40.1,0,51c0,46.9,2.5,46.9,13.9,48.9c3.7,0.6,3.1,4.7,0,4.1
		C164.2,176.4,152.5,176.4,148.4,176.4z"/>
	<path id="XMLID_44_" class="st0" d="M276.2,177.2c-4.1,0-15.3-0.4-23.7,0.4c-4.5,0-2.5-3.7-0.2-4.1c13.9-2,14.1-4.1,14.1-48.9v-51
		c0-39.9-0.6-43.8-12.3-46c-4.3,0-3.9-5.1,0.6-4.1c7,0.8,13.9,0.8,21.5,0.8s25.2-0.8,33.8-0.8c0,1.4,0,3.7,0,4.9
		c-8.6,0-16.8,0.6-23.3,1.4c-0.4,6.3-0.6,19.8-0.6,30.1c0,2.2,0.2,29.9,0.2,38.7c0,0,0,4.3,0,4.7c0,7.6-0.2,35.8-0.2,48.1
		c0,18,2.7,21.3,24.6,21.5c0,1.2,0,3.3,0,4.7C301.6,177.4,284,177.2,276.2,177.2z M338.9,123.2c-2.2-15.3-3.7-17-19.6-18.2
		c-13.1-1-27.6-1.8-33-1.8v-4.7c7.4,0.2,20.5-0.6,33.2-1.6c14.9-1.2,17.2-1.4,19.4-15.8c0.6-3.5,4.3-2.9,4.1,0.2
		c-0.4,6.8-0.8,13.5-0.8,20.7c0,5.5,0.4,13.9,0.8,20.5C343.4,127.3,339.1,127.1,338.9,123.2z M341.9,58.5
		c-2.7-21.3-8.8-29.7-31.9-30.1c0-2,0-2.5,0-4.9c12.3,0,25.2,0,29.5-0.4c0-2.3,4.1-1.8,3.3,0.8c1.2,3.9,2.7,28,3.1,34.2
		C346.4,62.8,342.3,62.8,341.9,58.5z M352.6,176c2,2.5-2.7,4.3-4.1,1.8c-7-0.2-20.3-0.2-37.7-0.2c0-1.8,0-3.3,0-4.7
		c27.6,0,40.1-8.4,44.8-28.4c0-3.7,5.7-2.5,3.9,1C357.9,153.3,353.6,172.1,352.6,176z"/>
	<path id="XMLID_40_" class="st0" d="M462.2,150.2c-5.1,17.2,0.8,21.3,14.5,23.3c2.2,0.4,4.7,4.1-0.4,4.1c-7.8-1-21.9-1.2-26.2-1.2
		c-6.3,0-14.7-0.2-23.9,1.2c-4.7,0.8-4.9-3.5-1-4.1c12.1-2.2,19.6-6.1,24.4-17c3.5-7.8,44-110.7,53.4-138.1c0-5.3,10-3.1,6.3,2.2
		C507.5,25.2,471.6,116.5,462.2,150.2z M474.9,111.9c0.6-1.2,1.8-4.7,2.2-5.9c1.6,1.2,42.8,0.8,47.1,0.4c0.6,1.2,1,3.1,2,4.9
		C517.9,110.7,482.9,110.5,474.9,111.9z M558.2,176.4c-4.1,0-14.1,0.6-24.8,1.2c-2.7,0.6-4.5-2.3-1-4.1c8.4-0.6,14.9-4.3,11-16
		c-11.5-33-37.4-97.4-43.8-111.3c1.4-4.1,8-20.9,9.8-25.6h0.4c1.2,4.9,8.2,19.9,10.6,25.6c5.3,12.7,39.5,98.9,43.6,108.9
		c5.5,13.5,12.3,17.6,20.3,18.4c3.7,0.8,2.7,4.3-0.4,4.1C575,177,562.3,176.4,558.2,176.4z"/>
	<path id="XMLID_37_" class="st0" d="M680.6,176.8c-4.1-0.2-14.9,0-23.3,0.8c-2.7,0.2-3.3-3.7,0-4.1c10.4-1.4,13.9-2,13.9-48.9
		c0-19.8,0-31.3,0-51c0-44.2-0.4-42.6-13.9-44.2c-3.5-0.4-3.5-4.1,0-4.1c6.5,0.2,13.9-0.4,22.3-0.8c8.6-0.4,18.4-1,25.8-1.2
		c0.2,1.2,0.2,3.1,0.2,4.5c-2.9,0.2-8.6,0.6-10.8,1c-3.1,0.6-4.5,1-4.5,21.5c0,22.7,0,55.7,0,74.5c0,45.8,2.2,48.1,26,49.7
		c0,1.4,0,2.9,0,4.7C709.5,178.9,691.1,177.4,680.6,176.8z M716.4,179.1c0-1.4,0-3.3,0-4.7c27.6-0.4,66.5-12.5,66.5-73.1
		c0-49.3-24.8-74.5-77.2-73.5c-0.2-1.6,0-2.7-0.2-4.5c3.1-0.2,6.3-0.4,8.6-0.4c63.6-1.8,92.1,37,92.1,76.7
		C806.1,138.8,778.4,179.1,716.4,179.1z"/>
	<path id="XMLID_33_" class="st0" d="M1149.3,150.2c-5.1,17.2,0.8,21.3,14.5,23.3c2.2,0.4,4.7,4.1-0.4,4.1c-7.8-1-21.9-1.2-26.2-1.2
		c-6.3,0-14.7-0.2-23.9,1.2c-4.7,0.8-4.9-3.5-1-4.1c12.1-2.2,19.6-6.1,24.4-17c3.5-7.8,44-110.7,53.4-138.1c0-5.3,10-3.1,6.3,2.2
		C1194.7,25.2,1158.7,116.5,1149.3,150.2z M1162,111.9c0.6-1.2,1.8-4.7,2.2-5.9c1.6,1.2,42.8,0.8,47.1,0.4c0.6,1.2,1,3.1,2,4.9
		C1205.1,110.7,1170.1,110.5,1162,111.9z M1245.4,176.4c-4.1,0-14.1,0.6-24.8,1.2c-2.7,0.6-4.5-2.3-1-4.1c8.4-0.6,14.9-4.3,11-16
		c-11.5-33-37.4-97.4-43.8-111.3c1.4-4.1,8-20.9,9.8-25.6h0.4c1.2,4.9,8.2,19.9,10.6,25.6c5.3,12.7,39.5,98.9,43.6,108.9
		c5.5,13.5,12.3,17.6,20.3,18.4c3.7,0.8,2.7,4.3-0.4,4.1C1262.2,177,1249.5,176.4,1245.4,176.4z"/>
	<path id="XMLID_25_" class="st0" d="M1375.1,30.7c-3.5,0.4-12.7,0.6-19,0.8c-17,0.6-25.6,4.7-31.7,27.4c-1,3.3-4.9,2.7-4.1-1
		c2.3-10.4,2.7-28,2.7-32.9c-1-2.5,2.2-3.7,3.7-2.2c5.5,2,16,3.3,28.9,3.3c9.6,0,19.9,0.2,21.3,0.2
		C1376.6,27.4,1375.9,29.1,1375.1,30.7z M1384.3,176.2c-3.5,0-18.6,0-28.2,1.4c-2.9,0.6-3.1-3.5-0.8-4.1c17-2.5,19.9-4.1,19.9-48.9
		c0-19.4,0.2-87.8-0.2-93.9c0.8-1.6,1.6-3.3,2-4.3c1.6,0,15.6,0,16.6-0.2c0.4,1.4,0.4,2.7,1,4.5c-1,11.9-0.6,75.9-0.6,94.1
		c0,44.8,1.8,45.8,20.5,48.7c2.5,0.4,2.2,4.7-0.6,4.1C1405.6,176.6,1388.2,176.2,1384.3,176.2z M1446.8,61.2
		c-0.2,4.1-3.7,3.5-4.1-0.2c-2.5-24.1-11.7-28.6-29.9-29.7c-5.5-0.4-12.1-0.6-18.2-0.6c-0.6-2-0.6-3.1-1-4.5
		c4.1,0.2,14.1,0,19.6-0.4c11.1-0.6,25.6-1.6,32.9-2.5c2.2-1.8,4.7,0.2,3.1,2.7C1448.8,27.6,1447.2,41.1,1446.8,61.2z"/>
	<path id="XMLID_19_" class="st0" d="M1538.2,177.2c-4.1,0-15.3-0.4-23.7,0.4c-4.5,0-2.5-3.7-0.2-4.1c13.9-2,14.1-4.1,14.1-48.9v-51
		c0-39.9-0.6-43.8-12.3-46c-4.3,0-3.9-5.1,0.6-4.1c7,0.8,13.9,0.8,21.5,0.8s25.2-0.8,33.8-0.8c0,1.4,0,3.7,0,4.9
		c-8.6,0-16.8,0.6-23.3,1.4c-0.4,6.3-0.6,19.8-0.6,30.1c0,2.2,0.2,29.9,0.2,38.7c0,0,0,4.3,0,4.7c0,7.6-0.2,35.8-0.2,48.1
		c0,18,2.7,21.3,24.6,21.5c0,1.2,0,3.3,0,4.7C1563.7,177.4,1546.1,177.2,1538.2,177.2z M1601,123.2c-2.2-15.3-3.7-17-19.6-18.2
		c-13.1-1-27.6-1.8-33-1.8v-4.7c7.4,0.2,20.5-0.6,33.2-1.6c14.9-1.2,17.2-1.4,19.4-15.8c0.6-3.5,4.3-2.9,4.1,0.2
		c-0.4,6.8-0.8,13.5-0.8,20.7c0,5.5,0.4,13.9,0.8,20.5C1605.5,127.3,1601.2,127.1,1601,123.2z M1603.9,58.5
		c-2.7-21.3-8.8-29.7-31.9-30.1c0-2,0-2.5,0-4.9c12.3,0,25.2,0,29.5-0.4c0-2.3,4.1-1.8,3.3,0.8c1.2,3.9,2.7,28,3.1,34.2
		C1608.4,62.8,1604.3,62.8,1603.9,58.5z M1614.7,176c2,2.5-2.7,4.3-4.1,1.8c-7-0.2-20.3-0.2-37.7-0.2c0-1.8,0-3.3,0-4.7
		c27.6,0,40.1-8.4,44.8-28.4c0-3.7,5.7-2.5,3.9,1C1620,153.3,1615.7,172.1,1614.7,176z"/>
	<path id="XMLID_16_" class="st0" d="M1717,176.4c-4.9,0-19.8,1-23.7,1.2c-3.1,0.2-3.3-3.9-0.2-4.1c13.1-1,14.3-2.9,14.3-48.9v-51
		c0-43.8-2.7-44.4-12.1-46.2c-3.1-0.6-2-4.5,0.4-4.1c5.9,0.8,12.5,0.8,17,0.8c5.1,0,20.9-1.4,28.5-1.6c0,1.8,0,2.9,0,4.5
		c-5.5,0-12.3,0.6-15.3,1.2c1,6.6,0.6,21.5,0.6,31.7v64.7c0,45.2,2.7,47.5,16,48.9c3.1,0.2,2.7,4.3-0.4,4.1
		C1732.8,176.8,1723,176.4,1717,176.4z M1812.8,178.7c-27.2,0-40.5-18.4-73.3-76.7c-1.8,0.2-3.5,0.2-5.5,0.2c-2.5,0-5.5-0.4-7.4-0.8
		c0-1.2,0-3.1,0-5.1c1.4,0.4,3.9,0.8,7.6,0.8c19.9,0,36.6-7.6,36.6-33.4c0-23.3-7.6-36.8-29.5-36.8c0-1.6,0-2.7,0-4.5
		c35,0,50.3,17.2,50.3,40.1c0,17.4-10.9,30.5-30.7,36.2c18.2,34.4,46.1,73.5,59.1,73.5c2.9,0,4.5-0.6,7-2.5c2.9-2.2,5.5,0.6,2.7,3.1
		C1826.1,175.8,1820.4,178.7,1812.8,178.7z"/>
	<path id="XMLID_12_" class="st0" d="M1929.9,178.5c-12.1,0-21.3-0.6-31.3-4.7c-1.6,3.3-6.5-0.2-4.1-2.9l-3.7-33.6
		c-0.2-2.5,2.9-3.9,4.1-0.8c5.1,22.5,13.3,36.4,35,36.4c7.6,0,16-2.2,19.8-3.9c0.6,1.4,1.8,3.3,2.5,5.1
		C1947.7,175.8,1940,178.5,1929.9,178.5z M1952.1,174c-0.8-1.8-2-3.7-2.5-5.1c9.2-4.1,14.9-11.1,14.9-23.7c0-19-10.8-27.6-23.5-35
		c-5.3-3.1-10.8-6.1-16-9.4c-16-10.2-22.9-23.1-22.9-36.4c0-25,23.5-37.4,27.4-39.1c0.8,2,1.6,3.5,2.2,4.9
		c-9.4,4.1-13.7,11.5-13.7,22.7c0,10.4,3.9,19.9,16.4,28.6c4.1,2.9,15.4,9.4,20.3,12.1c18.4,10.4,27.6,24.2,27.6,39.1
		C1982.3,145.7,1976.2,163.9,1952.1,174z M1974.4,55.5c-4.5-14.5-9.6-27.8-28.2-27.8c-5.3,0-11,1-14.7,2.5c-0.6-1.4-1.4-2.9-2.2-4.9
		c5.7-2.7,14.1-4.1,20.9-4.1c7.8,0,15.1,1.2,21.5,3.1c1-2.9,5.1-1.6,4.1,2.7c0,1.2,1.2,18.8,2.5,27.4
		C1979.7,58.1,1975,59.4,1974.4,55.5z"/>
	<path id="XMLID_4_" class="st0" d="M1087,23.5c-4.9,1-17.8,1.2-24.1,1.2c-4.3,0-18.4,0-26.2-1.2c-2.5-0.6-4.3,3.5-0.6,4.1
		c16.2,2.9,17.8,8.8,16,16.2c-5.9,26.6-30.5,81.7-40.7,107.6c-11.5-27.8-20.3-49.3-32.1-77c6.8-15.6,11.9-27.2,12.9-29.7
		c4.7-11.1,7-14.1,24.8-17.2c3.9-0.4,2.9-4.7-0.6-4.1c-13.9,0-39.3,2-46.3,2c-5.9,0-31.5-0.2-42.6-1.8c-4.7-0.6-4.7,3.3-0.6,4.1
		c7.8,1.2,14.3,7.2,19.4,18.4c1.8,3.9,10.4,23.9,19.6,46c-5.9,15.3-14.7,36.2-24.4,59.6c-6.3-15.6-41.1-104.2-42-107.9
		c-3.3-11.1,0.8-14.9,10.4-16c3.7-0.6,3.7-4.5-0.4-4.1c-7.6,0.6-20.9,1-25.6,1c-4.7,0-17-0.4-25-1c-3.5-0.2-4.1,3.7-0.4,4.1
		c9,1,14.5,5.7,20.1,18.2c3.9,8.6,38.5,96.4,43.4,109.1c5.1,13.5,7.6,18.4,9.6,24.8c-0.6,3.7,4.1,4.1,4.1,0.4
		c2.2-7.2,5.7-15.6,8.4-22.3c13.7-34,17.6-42.8,24.6-59.8c10.8,25.4,21.1,50.3,23.7,56.9c5.1,13.5,7.6,18.4,9.6,24.8
		c-0.2,4.1,4.9,3.9,4.1-0.2c2.2-7.8,4.7-14.1,7.8-22.7c15.8-38.9,45-101.3,47.5-107.7c5.5-14.1,11.5-18.8,26.2-21.5
		C1091.7,27.2,1090.3,22.7,1087,23.5z M959.7,41.5c0-6.2,5-11.2,11.2-11.2c6.2,0,11.2,5,11.2,11.2c0,6.6-11.2,16.3-11.2,22.5
		C970.8,57.8,959.7,48.2,959.7,41.5z"/>
</g>
</svg>
