<?xml version="1.0" encoding="UTF-8" standalone="no"?>
<!DOCTYPE svg PUBLIC "-//W3C//DTD SVG 1.1//EN" "http://www.w3.org/Graphics/SVG/1.1/DTD/svg11.dtd">
<svg version="1.1" xmlns="http://www.w3.org/2000/svg" xmlns:xlink="http://www.w3.org/1999/xlink" preserveAspectRatio="xMidYMid meet" viewBox="0 0 500 500" width="500" height="500"><defs><path d="M452.4 3.01C411.92 3.01 88.05 3.01 47.57 3.01C35.31 3.01 24.08 8.03 16.05 16.06C8.02 24.1 2.99 35.33 2.99 47.58C2.99 88.07 2.99 411.93 2.99 452.42C2.99 464.67 8.02 475.9 16.05 483.94C24.08 491.97 35.31 496.99 47.57 496.99C88.05 496.99 411.95 496.99 452.43 496.99C464.69 496.99 475.95 491.97 483.95 483.94C491.98 475.9 497.01 464.67 497.01 452.42C497.01 411.93 497.01 88.07 497.01 47.58C497.01 35.33 491.98 24.06 483.92 16.06C475.89 8.03 464.66 3.01 452.4 3.01Z" id="b1nJ5bjdAT"></path><path d="M201.39 366.78C238.52 292.52 259.15 251.26 263.28 243.01C266.83 235.9 263.95 227.26 256.85 223.71C249.74 220.16 241.1 223.04 237.55 230.14C231.36 242.52 181.85 341.54 175.66 353.92C172.11 361.02 174.99 369.66 182.1 373.22C189.2 376.77 197.84 373.89 201.39 366.78" id="f6rfxIZ9yO"></path><path d="M201.39 353.92C164.26 279.65 143.63 238.4 139.5 230.14C135.95 223.04 127.31 220.16 120.21 223.71C113.1 227.26 110.22 235.9 113.78 243.01C119.96 255.39 169.48 354.41 175.66 366.78C179.22 373.89 187.86 376.77 194.96 373.22C202.06 369.66 204.94 361.02 201.39 353.92" id="a5XlwxbTFI"></path><path d="M326 366.78C363.13 292.52 383.76 251.26 387.89 243.01C391.44 235.9 388.56 227.26 381.46 223.71C374.35 220.16 365.71 223.04 362.16 230.14C355.97 242.52 306.49 341.54 300.3 353.92C296.75 361.02 299.63 369.66 306.74 373.22C313.81 376.77 322.45 373.89 326 366.78" id="b4NiptlTaf"></path><path d="M176.53 119.23C250.79 267.76 292.05 350.28 300.3 366.78C303.86 373.89 312.5 376.77 319.6 373.22C326.7 369.66 329.58 361.02 326.03 353.92C313.65 329.16 214.6 131.12 202.22 106.37C198.67 99.26 190.03 96.38 182.93 99.94C175.86 103.49 172.98 112.13 176.53 119.23" id="b4bovfrOYj"></path></defs><g><g><g><use xlink:href="#b1nJ5bjdAT" opacity="1" fill="#000000" fill-opacity="0"></use><g><use xlink:href="#b1nJ5bjdAT" opacity="1" fill-opacity="0" stroke="#231f20" stroke-width="6" stroke-opacity="1"></use></g></g><g><use xlink:href="#f6rfxIZ9yO" opacity="1" fill="#a6a8ab" fill-opacity="1"></use><g><use xlink:href="#f6rfxIZ9yO" opacity="1" fill-opacity="0" stroke="#000000" stroke-width="1" stroke-opacity="0"></use></g></g><g><use xlink:href="#a5XlwxbTFI" opacity="1" fill="#231f20" fill-opacity="1"></use><g><use xlink:href="#a5XlwxbTFI" opacity="1" fill-opacity="0" stroke="#000000" stroke-width="1" stroke-opacity="0"></use></g></g><g><use xlink:href="#b4NiptlTaf" opacity="1" fill="#a6a8ab" fill-opacity="1"></use><g><use xlink:href="#b4NiptlTaf" opacity="1" fill-opacity="0" stroke="#000000" stroke-width="1" stroke-opacity="0"></use></g></g><g><use xlink:href="#b4bovfrOYj" opacity="1" fill="#231f20" fill-opacity="1"></use><g><use xlink:href="#b4bovfrOYj" opacity="1" fill-opacity="0" stroke="#000000" stroke-width="1" stroke-opacity="0"></use></g></g></g></g></svg>